<svg width="1028" height="272" viewBox="0 0 1028 272" fill="none" xmlns="http://www.w3.org/2000/svg">
<g clip-path="url(#clip0_3_152)">
<path d="M86.25 164.188C88.1562 164.188 89.9844 164.945 91.3323 166.293C92.6802 167.641 93.4375 169.469 93.4375 171.375V257.625C93.4375 259.531 92.6802 261.359 91.3323 262.707C89.9844 264.055 88.1562 264.812 86.25 264.812H28.75C26.8438 264.812 25.0156 264.055 23.6677 262.707C22.3198 261.359 21.5625 259.531 21.5625 257.625V171.375C21.5625 169.469 22.3198 167.641 23.6677 166.293C25.0156 164.945 26.8438 164.188 28.75 164.188H86.25ZM28.75 157C24.9375 157 21.2812 158.515 18.5853 161.21C15.8895 163.906 14.375 167.563 14.375 171.375V257.625C14.375 261.437 15.8895 265.094 18.5853 267.79C21.2812 270.485 24.9375 272 28.75 272H86.25C90.0625 272 93.7188 270.485 96.4147 267.79C99.1105 265.094 100.625 261.437 100.625 257.625V171.375C100.625 167.563 99.1105 163.906 96.4147 161.21C93.7188 158.515 90.0625 157 86.25 157H28.75Z" fill="black" fill-opacity="0.1"/>
<path d="M57.5 191.141C56.0703 191.141 54.6992 190.573 53.6883 189.562C52.6773 188.551 52.1094 187.18 52.1094 185.75C52.1094 184.32 52.6773 182.949 53.6883 181.938C54.6992 180.927 56.0703 180.359 57.5 180.359C58.9297 180.359 60.3008 180.927 61.3117 181.938C62.3227 182.949 62.8906 184.32 62.8906 185.75C62.8906 187.18 62.3227 188.551 61.3117 189.562C60.3008 190.573 58.9297 191.141 57.5 191.141ZM57.5 200.125C61.3125 200.125 64.9688 198.61 67.6647 195.915C70.3605 193.219 71.875 189.562 71.875 185.75C71.875 181.938 70.3605 178.281 67.6647 175.585C64.9688 172.89 61.3125 171.375 57.5 171.375C53.6875 171.375 50.0312 172.89 47.3353 175.585C44.6395 178.281 43.125 181.938 43.125 185.75C43.125 189.562 44.6395 193.219 47.3353 195.915C50.0312 198.61 53.6875 200.125 57.5 200.125ZM57.5 221.688C54.6406 221.688 51.8984 222.823 49.8765 224.845C47.8546 226.867 46.7188 229.609 46.7188 232.469C46.7188 235.328 47.8546 238.07 49.8765 240.092C51.8984 242.114 54.6406 243.25 57.5 243.25C60.3594 243.25 63.1016 242.114 65.1235 240.092C67.1454 238.07 68.2812 235.328 68.2812 232.469C68.2812 229.609 67.1454 226.867 65.1235 224.845C63.1016 222.823 60.3594 221.688 57.5 221.688ZM32.3438 232.469C32.3438 225.797 34.9941 219.398 39.7118 214.681C44.4296 209.963 50.8281 207.312 57.5 207.312C64.1719 207.312 70.5704 209.963 75.2882 214.681C80.0059 219.398 82.6562 225.797 82.6562 232.469C82.6562 239.141 80.0059 245.539 75.2882 250.257C70.5704 254.975 64.1719 257.625 57.5 257.625C50.8281 257.625 44.4296 254.975 39.7118 250.257C34.9941 245.539 32.3438 239.141 32.3438 232.469Z" fill="black" fill-opacity="0.1"/>
</g>
<g clip-path="url(#clip1_3_152)">
<path d="M169.25 164.188C171.156 164.188 172.984 164.945 174.332 166.293C175.68 167.641 176.438 169.469 176.438 171.375V257.625C176.438 259.531 175.68 261.359 174.332 262.707C172.984 264.055 171.156 264.812 169.25 264.812H111.75C109.844 264.812 108.016 264.055 106.668 262.707C105.32 261.359 104.562 259.531 104.562 257.625V171.375C104.562 169.469 105.32 167.641 106.668 166.293C108.016 164.945 109.844 164.188 111.75 164.188H169.25ZM111.75 157C107.938 157 104.281 158.515 101.585 161.21C98.8895 163.906 97.375 167.563 97.375 171.375V257.625C97.375 261.437 98.8895 265.094 101.585 267.79C104.281 270.485 107.938 272 111.75 272H169.25C173.062 272 176.719 270.485 179.415 267.79C182.11 265.094 183.625 261.437 183.625 257.625V171.375C183.625 167.563 182.11 163.906 179.415 161.21C176.719 158.515 173.062 157 169.25 157H111.75Z" fill="black" fill-opacity="0.1"/>
<path d="M140.5 191.141C139.07 191.141 137.699 190.573 136.688 189.562C135.677 188.551 135.109 187.18 135.109 185.75C135.109 184.32 135.677 182.949 136.688 181.938C137.699 180.927 139.07 180.359 140.5 180.359C141.93 180.359 143.301 180.927 144.312 181.938C145.323 182.949 145.891 184.32 145.891 185.75C145.891 187.18 145.323 188.551 144.312 189.562C143.301 190.573 141.93 191.141 140.5 191.141ZM140.5 200.125C144.312 200.125 147.969 198.61 150.665 195.915C153.36 193.219 154.875 189.562 154.875 185.75C154.875 181.938 153.36 178.281 150.665 175.585C147.969 172.89 144.312 171.375 140.5 171.375C136.688 171.375 133.031 172.89 130.335 175.585C127.64 178.281 126.125 181.938 126.125 185.75C126.125 189.562 127.64 193.219 130.335 195.915C133.031 198.61 136.688 200.125 140.5 200.125ZM140.5 221.688C137.641 221.688 134.898 222.823 132.877 224.845C130.855 226.867 129.719 229.609 129.719 232.469C129.719 235.328 130.855 238.07 132.877 240.092C134.898 242.114 137.641 243.25 140.5 243.25C143.359 243.25 146.102 242.114 148.123 240.092C150.145 238.07 151.281 235.328 151.281 232.469C151.281 229.609 150.145 226.867 148.123 224.845C146.102 222.823 143.359 221.688 140.5 221.688ZM115.344 232.469C115.344 225.797 117.994 219.398 122.712 214.681C127.43 209.963 133.828 207.312 140.5 207.312C147.172 207.312 153.57 209.963 158.288 214.681C163.006 219.398 165.656 225.797 165.656 232.469C165.656 239.141 163.006 245.539 158.288 250.257C153.57 254.975 147.172 257.625 140.5 257.625C133.828 257.625 127.43 254.975 122.712 250.257C117.994 245.539 115.344 239.141 115.344 232.469Z" fill="black" fill-opacity="0.1"/>
</g>
<g clip-path="url(#clip2_3_152)">
<path d="M252.25 164.188C254.156 164.188 255.984 164.945 257.332 166.293C258.68 167.641 259.438 169.469 259.438 171.375V257.625C259.438 259.531 258.68 261.359 257.332 262.707C255.984 264.055 254.156 264.812 252.25 264.812H194.75C192.844 264.812 191.016 264.055 189.668 262.707C188.32 261.359 187.562 259.531 187.562 257.625V171.375C187.562 169.469 188.32 167.641 189.668 166.293C191.016 164.945 192.844 164.188 194.75 164.188H252.25ZM194.75 157C190.938 157 187.281 158.515 184.585 161.21C181.89 163.906 180.375 167.563 180.375 171.375V257.625C180.375 261.437 181.89 265.094 184.585 267.79C187.281 270.485 190.938 272 194.75 272H252.25C256.062 272 259.719 270.485 262.415 267.79C265.11 265.094 266.625 261.437 266.625 257.625V171.375C266.625 167.563 265.11 163.906 262.415 161.21C259.719 158.515 256.062 157 252.25 157H194.75Z" fill="black" fill-opacity="0.1"/>
<path d="M223.5 191.141C222.07 191.141 220.699 190.573 219.688 189.562C218.677 188.551 218.109 187.18 218.109 185.75C218.109 184.32 218.677 182.949 219.688 181.938C220.699 180.927 222.07 180.359 223.5 180.359C224.93 180.359 226.301 180.927 227.312 181.938C228.323 182.949 228.891 184.32 228.891 185.75C228.891 187.18 228.323 188.551 227.312 189.562C226.301 190.573 224.93 191.141 223.5 191.141ZM223.5 200.125C227.312 200.125 230.969 198.61 233.665 195.915C236.36 193.219 237.875 189.562 237.875 185.75C237.875 181.938 236.36 178.281 233.665 175.585C230.969 172.89 227.312 171.375 223.5 171.375C219.688 171.375 216.031 172.89 213.335 175.585C210.64 178.281 209.125 181.938 209.125 185.75C209.125 189.562 210.64 193.219 213.335 195.915C216.031 198.61 219.688 200.125 223.5 200.125ZM223.5 221.688C220.641 221.688 217.898 222.823 215.877 224.845C213.855 226.867 212.719 229.609 212.719 232.469C212.719 235.328 213.855 238.07 215.877 240.092C217.898 242.114 220.641 243.25 223.5 243.25C226.359 243.25 229.102 242.114 231.123 240.092C233.145 238.07 234.281 235.328 234.281 232.469C234.281 229.609 233.145 226.867 231.123 224.845C229.102 222.823 226.359 221.688 223.5 221.688ZM198.344 232.469C198.344 225.797 200.994 219.398 205.712 214.681C210.43 209.963 216.828 207.312 223.5 207.312C230.172 207.312 236.57 209.963 241.288 214.681C246.006 219.398 248.656 225.797 248.656 232.469C248.656 239.141 246.006 245.539 241.288 250.257C236.57 254.975 230.172 257.625 223.5 257.625C216.828 257.625 210.43 254.975 205.712 250.257C200.994 245.539 198.344 239.141 198.344 232.469Z" fill="black" fill-opacity="0.1"/>
</g>
<g clip-path="url(#clip3_3_152)">
<path d="M335.25 164.188C337.156 164.188 338.984 164.945 340.332 166.293C341.68 167.641 342.438 169.469 342.438 171.375V257.625C342.438 259.531 341.68 261.359 340.332 262.707C338.984 264.055 337.156 264.812 335.25 264.812H277.75C275.844 264.812 274.016 264.055 272.668 262.707C271.32 261.359 270.562 259.531 270.562 257.625V171.375C270.562 169.469 271.32 167.641 272.668 166.293C274.016 164.945 275.844 164.188 277.75 164.188H335.25ZM277.75 157C273.938 157 270.281 158.515 267.585 161.21C264.89 163.906 263.375 167.563 263.375 171.375V257.625C263.375 261.437 264.89 265.094 267.585 267.79C270.281 270.485 273.938 272 277.75 272H335.25C339.062 272 342.719 270.485 345.415 267.79C348.11 265.094 349.625 261.437 349.625 257.625V171.375C349.625 167.563 348.11 163.906 345.415 161.21C342.719 158.515 339.062 157 335.25 157H277.75Z" fill="black" fill-opacity="0.1"/>
<path d="M306.5 191.141C305.07 191.141 303.699 190.573 302.688 189.562C301.677 188.551 301.109 187.18 301.109 185.75C301.109 184.32 301.677 182.949 302.688 181.938C303.699 180.927 305.07 180.359 306.5 180.359C307.93 180.359 309.301 180.927 310.312 181.938C311.323 182.949 311.891 184.32 311.891 185.75C311.891 187.18 311.323 188.551 310.312 189.562C309.301 190.573 307.93 191.141 306.5 191.141ZM306.5 200.125C310.312 200.125 313.969 198.61 316.665 195.915C319.36 193.219 320.875 189.562 320.875 185.75C320.875 181.938 319.36 178.281 316.665 175.585C313.969 172.89 310.312 171.375 306.5 171.375C302.688 171.375 299.031 172.89 296.335 175.585C293.64 178.281 292.125 181.938 292.125 185.75C292.125 189.562 293.64 193.219 296.335 195.915C299.031 198.61 302.688 200.125 306.5 200.125ZM306.5 221.688C303.641 221.688 300.898 222.823 298.877 224.845C296.855 226.867 295.719 229.609 295.719 232.469C295.719 235.328 296.855 238.07 298.877 240.092C300.898 242.114 303.641 243.25 306.5 243.25C309.359 243.25 312.102 242.114 314.123 240.092C316.145 238.07 317.281 235.328 317.281 232.469C317.281 229.609 316.145 226.867 314.123 224.845C312.102 222.823 309.359 221.688 306.5 221.688ZM281.344 232.469C281.344 225.797 283.994 219.398 288.712 214.681C293.43 209.963 299.828 207.312 306.5 207.312C313.172 207.312 319.57 209.963 324.288 214.681C329.006 219.398 331.656 225.797 331.656 232.469C331.656 239.141 329.006 245.539 324.288 250.257C319.57 254.975 313.172 257.625 306.5 257.625C299.828 257.625 293.43 254.975 288.712 250.257C283.994 245.539 281.344 239.141 281.344 232.469Z" fill="black" fill-opacity="0.1"/>
</g>
<g clip-path="url(#clip4_3_152)">
<path d="M418.25 164.188C420.156 164.188 421.984 164.945 423.332 166.293C424.68 167.641 425.438 169.469 425.438 171.375V257.625C425.438 259.531 424.68 261.359 423.332 262.707C421.984 264.055 420.156 264.812 418.25 264.812H360.75C358.844 264.812 357.016 264.055 355.668 262.707C354.32 261.359 353.562 259.531 353.562 257.625V171.375C353.562 169.469 354.32 167.641 355.668 166.293C357.016 164.945 358.844 164.188 360.75 164.188H418.25ZM360.75 157C356.938 157 353.281 158.515 350.585 161.21C347.89 163.906 346.375 167.563 346.375 171.375V257.625C346.375 261.437 347.89 265.094 350.585 267.79C353.281 270.485 356.938 272 360.75 272H418.25C422.062 272 425.719 270.485 428.415 267.79C431.11 265.094 432.625 261.437 432.625 257.625V171.375C432.625 167.563 431.11 163.906 428.415 161.21C425.719 158.515 422.062 157 418.25 157H360.75Z" fill="black" fill-opacity="0.1"/>
<path d="M389.5 191.141C388.07 191.141 386.699 190.573 385.688 189.562C384.677 188.551 384.109 187.18 384.109 185.75C384.109 184.32 384.677 182.949 385.688 181.938C386.699 180.927 388.07 180.359 389.5 180.359C390.93 180.359 392.301 180.927 393.312 181.938C394.323 182.949 394.891 184.32 394.891 185.75C394.891 187.18 394.323 188.551 393.312 189.562C392.301 190.573 390.93 191.141 389.5 191.141ZM389.5 200.125C393.312 200.125 396.969 198.61 399.665 195.915C402.36 193.219 403.875 189.562 403.875 185.75C403.875 181.938 402.36 178.281 399.665 175.585C396.969 172.89 393.312 171.375 389.5 171.375C385.688 171.375 382.031 172.89 379.335 175.585C376.64 178.281 375.125 181.938 375.125 185.75C375.125 189.562 376.64 193.219 379.335 195.915C382.031 198.61 385.688 200.125 389.5 200.125ZM389.5 221.688C386.641 221.688 383.898 222.823 381.877 224.845C379.855 226.867 378.719 229.609 378.719 232.469C378.719 235.328 379.855 238.07 381.877 240.092C383.898 242.114 386.641 243.25 389.5 243.25C392.359 243.25 395.102 242.114 397.123 240.092C399.145 238.07 400.281 235.328 400.281 232.469C400.281 229.609 399.145 226.867 397.123 224.845C395.102 222.823 392.359 221.688 389.5 221.688ZM364.344 232.469C364.344 225.797 366.994 219.398 371.712 214.681C376.43 209.963 382.828 207.312 389.5 207.312C396.172 207.312 402.57 209.963 407.288 214.681C412.006 219.398 414.656 225.797 414.656 232.469C414.656 239.141 412.006 245.539 407.288 250.257C402.57 254.975 396.172 257.625 389.5 257.625C382.828 257.625 376.43 254.975 371.712 250.257C366.994 245.539 364.344 239.141 364.344 232.469Z" fill="black" fill-opacity="0.1"/>
</g>
<g clip-path="url(#clip5_3_152)">
<path d="M501.25 164.188C503.156 164.188 504.984 164.945 506.332 166.293C507.68 167.641 508.438 169.469 508.438 171.375V257.625C508.438 259.531 507.68 261.359 506.332 262.707C504.984 264.055 503.156 264.812 501.25 264.812H443.75C441.844 264.812 440.016 264.055 438.668 262.707C437.32 261.359 436.562 259.531 436.562 257.625V171.375C436.562 169.469 437.32 167.641 438.668 166.293C440.016 164.945 441.844 164.188 443.75 164.188H501.25ZM443.75 157C439.938 157 436.281 158.515 433.585 161.21C430.89 163.906 429.375 167.563 429.375 171.375V257.625C429.375 261.437 430.89 265.094 433.585 267.79C436.281 270.485 439.938 272 443.75 272H501.25C505.062 272 508.719 270.485 511.415 267.79C514.11 265.094 515.625 261.437 515.625 257.625V171.375C515.625 167.563 514.11 163.906 511.415 161.21C508.719 158.515 505.062 157 501.25 157H443.75Z" fill="black"/>
<path d="M472.5 191.141C471.07 191.141 469.699 190.573 468.688 189.562C467.677 188.551 467.109 187.18 467.109 185.75C467.109 184.32 467.677 182.949 468.688 181.938C469.699 180.927 471.07 180.359 472.5 180.359C473.93 180.359 475.301 180.927 476.312 181.938C477.323 182.949 477.891 184.32 477.891 185.75C477.891 187.18 477.323 188.551 476.312 189.562C475.301 190.573 473.93 191.141 472.5 191.141ZM472.5 200.125C476.312 200.125 479.969 198.61 482.665 195.915C485.36 193.219 486.875 189.562 486.875 185.75C486.875 181.938 485.36 178.281 482.665 175.585C479.969 172.89 476.312 171.375 472.5 171.375C468.688 171.375 465.031 172.89 462.335 175.585C459.64 178.281 458.125 181.938 458.125 185.75C458.125 189.562 459.64 193.219 462.335 195.915C465.031 198.61 468.688 200.125 472.5 200.125ZM472.5 221.688C469.641 221.688 466.898 222.823 464.877 224.845C462.855 226.867 461.719 229.609 461.719 232.469C461.719 235.328 462.855 238.07 464.877 240.092C466.898 242.114 469.641 243.25 472.5 243.25C475.359 243.25 478.102 242.114 480.123 240.092C482.145 238.07 483.281 235.328 483.281 232.469C483.281 229.609 482.145 226.867 480.123 224.845C478.102 222.823 475.359 221.688 472.5 221.688ZM447.344 232.469C447.344 225.797 449.994 219.398 454.712 214.681C459.43 209.963 465.828 207.312 472.5 207.312C479.172 207.312 485.57 209.963 490.288 214.681C495.006 219.398 497.656 225.797 497.656 232.469C497.656 239.141 495.006 245.539 490.288 250.257C485.57 254.975 479.172 257.625 472.5 257.625C465.828 257.625 459.43 254.975 454.712 250.257C449.994 245.539 447.344 239.141 447.344 232.469Z" fill="black"/>
</g>
<g clip-path="url(#clip6_3_152)">
<path d="M584.25 164.188C586.156 164.188 587.984 164.945 589.332 166.293C590.68 167.641 591.438 169.469 591.438 171.375V257.625C591.438 259.531 590.68 261.359 589.332 262.707C587.984 264.055 586.156 264.812 584.25 264.812H526.75C524.844 264.812 523.016 264.055 521.668 262.707C520.32 261.359 519.562 259.531 519.562 257.625V171.375C519.562 169.469 520.32 167.641 521.668 166.293C523.016 164.945 524.844 164.188 526.75 164.188H584.25ZM526.75 157C522.938 157 519.281 158.515 516.585 161.21C513.89 163.906 512.375 167.563 512.375 171.375V257.625C512.375 261.437 513.89 265.094 516.585 267.79C519.281 270.485 522.938 272 526.75 272H584.25C588.062 272 591.719 270.485 594.415 267.79C597.11 265.094 598.625 261.437 598.625 257.625V171.375C598.625 167.563 597.11 163.906 594.415 161.21C591.719 158.515 588.062 157 584.25 157H526.75Z" fill="black"/>
<path d="M555.5 191.141C554.07 191.141 552.699 190.573 551.688 189.562C550.677 188.551 550.109 187.18 550.109 185.75C550.109 184.32 550.677 182.949 551.688 181.938C552.699 180.927 554.07 180.359 555.5 180.359C556.93 180.359 558.301 180.927 559.312 181.938C560.323 182.949 560.891 184.32 560.891 185.75C560.891 187.18 560.323 188.551 559.312 189.562C558.301 190.573 556.93 191.141 555.5 191.141ZM555.5 200.125C559.312 200.125 562.969 198.61 565.665 195.915C568.36 193.219 569.875 189.562 569.875 185.75C569.875 181.938 568.36 178.281 565.665 175.585C562.969 172.89 559.312 171.375 555.5 171.375C551.688 171.375 548.031 172.89 545.335 175.585C542.64 178.281 541.125 181.938 541.125 185.75C541.125 189.562 542.64 193.219 545.335 195.915C548.031 198.61 551.688 200.125 555.5 200.125ZM555.5 221.688C552.641 221.688 549.898 222.823 547.877 224.845C545.855 226.867 544.719 229.609 544.719 232.469C544.719 235.328 545.855 238.07 547.877 240.092C549.898 242.114 552.641 243.25 555.5 243.25C558.359 243.25 561.102 242.114 563.123 240.092C565.145 238.07 566.281 235.328 566.281 232.469C566.281 229.609 565.145 226.867 563.123 224.845C561.102 222.823 558.359 221.688 555.5 221.688ZM530.344 232.469C530.344 225.797 532.994 219.398 537.712 214.681C542.43 209.963 548.828 207.312 555.5 207.312C562.172 207.312 568.57 209.963 573.288 214.681C578.006 219.398 580.656 225.797 580.656 232.469C580.656 239.141 578.006 245.539 573.288 250.257C568.57 254.975 562.172 257.625 555.5 257.625C548.828 257.625 542.43 254.975 537.712 250.257C532.994 245.539 530.344 239.141 530.344 232.469Z" fill="black"/>
</g>
<g clip-path="url(#clip7_3_152)">
<path d="M667.25 164.188C669.156 164.188 670.984 164.945 672.332 166.293C673.68 167.641 674.438 169.469 674.438 171.375V257.625C674.438 259.531 673.68 261.359 672.332 262.707C670.984 264.055 669.156 264.812 667.25 264.812H609.75C607.844 264.812 606.016 264.055 604.668 262.707C603.32 261.359 602.562 259.531 602.562 257.625V171.375C602.562 169.469 603.32 167.641 604.668 166.293C606.016 164.945 607.844 164.188 609.75 164.188H667.25ZM609.75 157C605.938 157 602.281 158.515 599.585 161.21C596.89 163.906 595.375 167.563 595.375 171.375V257.625C595.375 261.437 596.89 265.094 599.585 267.79C602.281 270.485 605.938 272 609.75 272H667.25C671.062 272 674.719 270.485 677.415 267.79C680.11 265.094 681.625 261.437 681.625 257.625V171.375C681.625 167.563 680.11 163.906 677.415 161.21C674.719 158.515 671.062 157 667.25 157H609.75Z" fill="black" fill-opacity="0.1"/>
<path d="M638.5 191.141C637.07 191.141 635.699 190.573 634.688 189.562C633.677 188.551 633.109 187.18 633.109 185.75C633.109 184.32 633.677 182.949 634.688 181.938C635.699 180.927 637.07 180.359 638.5 180.359C639.93 180.359 641.301 180.927 642.312 181.938C643.323 182.949 643.891 184.32 643.891 185.75C643.891 187.18 643.323 188.551 642.312 189.562C641.301 190.573 639.93 191.141 638.5 191.141ZM638.5 200.125C642.312 200.125 645.969 198.61 648.665 195.915C651.36 193.219 652.875 189.562 652.875 185.75C652.875 181.938 651.36 178.281 648.665 175.585C645.969 172.89 642.312 171.375 638.5 171.375C634.688 171.375 631.031 172.89 628.335 175.585C625.64 178.281 624.125 181.938 624.125 185.75C624.125 189.562 625.64 193.219 628.335 195.915C631.031 198.61 634.688 200.125 638.5 200.125ZM638.5 221.688C635.641 221.688 632.898 222.823 630.877 224.845C628.855 226.867 627.719 229.609 627.719 232.469C627.719 235.328 628.855 238.07 630.877 240.092C632.898 242.114 635.641 243.25 638.5 243.25C641.359 243.25 644.102 242.114 646.123 240.092C648.145 238.07 649.281 235.328 649.281 232.469C649.281 229.609 648.145 226.867 646.123 224.845C644.102 222.823 641.359 221.688 638.5 221.688ZM613.344 232.469C613.344 225.797 615.994 219.398 620.712 214.681C625.43 209.963 631.828 207.312 638.5 207.312C645.172 207.312 651.57 209.963 656.288 214.681C661.006 219.398 663.656 225.797 663.656 232.469C663.656 239.141 661.006 245.539 656.288 250.257C651.57 254.975 645.172 257.625 638.5 257.625C631.828 257.625 625.43 254.975 620.712 250.257C615.994 245.539 613.344 239.141 613.344 232.469Z" fill="black" fill-opacity="0.1"/>
</g>
<g clip-path="url(#clip8_3_152)">
<path d="M750.25 164.188C752.156 164.188 753.984 164.945 755.332 166.293C756.68 167.641 757.438 169.469 757.438 171.375V257.625C757.438 259.531 756.68 261.359 755.332 262.707C753.984 264.055 752.156 264.812 750.25 264.812H692.75C690.844 264.812 689.016 264.055 687.668 262.707C686.32 261.359 685.562 259.531 685.562 257.625V171.375C685.562 169.469 686.32 167.641 687.668 166.293C689.016 164.945 690.844 164.188 692.75 164.188H750.25ZM692.75 157C688.938 157 685.281 158.515 682.585 161.21C679.89 163.906 678.375 167.563 678.375 171.375V257.625C678.375 261.437 679.89 265.094 682.585 267.79C685.281 270.485 688.938 272 692.75 272H750.25C754.062 272 757.719 270.485 760.415 267.79C763.11 265.094 764.625 261.437 764.625 257.625V171.375C764.625 167.563 763.11 163.906 760.415 161.21C757.719 158.515 754.062 157 750.25 157H692.75Z" fill="black" fill-opacity="0.1"/>
<path d="M721.5 191.141C720.07 191.141 718.699 190.573 717.688 189.562C716.677 188.551 716.109 187.18 716.109 185.75C716.109 184.32 716.677 182.949 717.688 181.938C718.699 180.927 720.07 180.359 721.5 180.359C722.93 180.359 724.301 180.927 725.312 181.938C726.323 182.949 726.891 184.32 726.891 185.75C726.891 187.18 726.323 188.551 725.312 189.562C724.301 190.573 722.93 191.141 721.5 191.141ZM721.5 200.125C725.312 200.125 728.969 198.61 731.665 195.915C734.36 193.219 735.875 189.562 735.875 185.75C735.875 181.938 734.36 178.281 731.665 175.585C728.969 172.89 725.312 171.375 721.5 171.375C717.688 171.375 714.031 172.89 711.335 175.585C708.64 178.281 707.125 181.938 707.125 185.75C707.125 189.562 708.64 193.219 711.335 195.915C714.031 198.61 717.688 200.125 721.5 200.125ZM721.5 221.688C718.641 221.688 715.898 222.823 713.877 224.845C711.855 226.867 710.719 229.609 710.719 232.469C710.719 235.328 711.855 238.07 713.877 240.092C715.898 242.114 718.641 243.25 721.5 243.25C724.359 243.25 727.102 242.114 729.123 240.092C731.145 238.07 732.281 235.328 732.281 232.469C732.281 229.609 731.145 226.867 729.123 224.845C727.102 222.823 724.359 221.688 721.5 221.688ZM696.344 232.469C696.344 225.797 698.994 219.398 703.712 214.681C708.43 209.963 714.828 207.312 721.5 207.312C728.172 207.312 734.57 209.963 739.288 214.681C744.006 219.398 746.656 225.797 746.656 232.469C746.656 239.141 744.006 245.539 739.288 250.257C734.57 254.975 728.172 257.625 721.5 257.625C714.828 257.625 708.43 254.975 703.712 250.257C698.994 245.539 696.344 239.141 696.344 232.469Z" fill="black" fill-opacity="0.1"/>
</g>
<g clip-path="url(#clip9_3_152)">
<path d="M833.25 164.188C835.156 164.188 836.984 164.945 838.332 166.293C839.68 167.641 840.438 169.469 840.438 171.375V257.625C840.438 259.531 839.68 261.359 838.332 262.707C836.984 264.055 835.156 264.812 833.25 264.812H775.75C773.844 264.812 772.016 264.055 770.668 262.707C769.32 261.359 768.562 259.531 768.562 257.625V171.375C768.562 169.469 769.32 167.641 770.668 166.293C772.016 164.945 773.844 164.188 775.75 164.188H833.25ZM775.75 157C771.938 157 768.281 158.515 765.585 161.21C762.89 163.906 761.375 167.563 761.375 171.375V257.625C761.375 261.437 762.89 265.094 765.585 267.79C768.281 270.485 771.938 272 775.75 272H833.25C837.062 272 840.719 270.485 843.415 267.79C846.11 265.094 847.625 261.437 847.625 257.625V171.375C847.625 167.563 846.11 163.906 843.415 161.21C840.719 158.515 837.062 157 833.25 157H775.75Z" fill="black" fill-opacity="0.1"/>
<path d="M804.5 191.141C803.07 191.141 801.699 190.573 800.688 189.562C799.677 188.551 799.109 187.18 799.109 185.75C799.109 184.32 799.677 182.949 800.688 181.938C801.699 180.927 803.07 180.359 804.5 180.359C805.93 180.359 807.301 180.927 808.312 181.938C809.323 182.949 809.891 184.32 809.891 185.75C809.891 187.18 809.323 188.551 808.312 189.562C807.301 190.573 805.93 191.141 804.5 191.141ZM804.5 200.125C808.312 200.125 811.969 198.61 814.665 195.915C817.36 193.219 818.875 189.562 818.875 185.75C818.875 181.938 817.36 178.281 814.665 175.585C811.969 172.89 808.312 171.375 804.5 171.375C800.688 171.375 797.031 172.89 794.335 175.585C791.64 178.281 790.125 181.938 790.125 185.75C790.125 189.562 791.64 193.219 794.335 195.915C797.031 198.61 800.688 200.125 804.5 200.125ZM804.5 221.688C801.641 221.688 798.898 222.823 796.877 224.845C794.855 226.867 793.719 229.609 793.719 232.469C793.719 235.328 794.855 238.07 796.877 240.092C798.898 242.114 801.641 243.25 804.5 243.25C807.359 243.25 810.102 242.114 812.123 240.092C814.145 238.07 815.281 235.328 815.281 232.469C815.281 229.609 814.145 226.867 812.123 224.845C810.102 222.823 807.359 221.688 804.5 221.688ZM779.344 232.469C779.344 225.797 781.994 219.398 786.712 214.681C791.43 209.963 797.828 207.312 804.5 207.312C811.172 207.312 817.57 209.963 822.288 214.681C827.006 219.398 829.656 225.797 829.656 232.469C829.656 239.141 827.006 245.539 822.288 250.257C817.57 254.975 811.172 257.625 804.5 257.625C797.828 257.625 791.43 254.975 786.712 250.257C781.994 245.539 779.344 239.141 779.344 232.469Z" fill="black" fill-opacity="0.1"/>
</g>
<g clip-path="url(#clip10_3_152)">
<path d="M916.25 164.188C918.156 164.188 919.984 164.945 921.332 166.293C922.68 167.641 923.438 169.469 923.438 171.375V257.625C923.438 259.531 922.68 261.359 921.332 262.707C919.984 264.055 918.156 264.812 916.25 264.812H858.75C856.844 264.812 855.016 264.055 853.668 262.707C852.32 261.359 851.562 259.531 851.562 257.625V171.375C851.562 169.469 852.32 167.641 853.668 166.293C855.016 164.945 856.844 164.188 858.75 164.188H916.25ZM858.75 157C854.938 157 851.281 158.515 848.585 161.21C845.89 163.906 844.375 167.563 844.375 171.375V257.625C844.375 261.437 845.89 265.094 848.585 267.79C851.281 270.485 854.938 272 858.75 272H916.25C920.062 272 923.719 270.485 926.415 267.79C929.11 265.094 930.625 261.437 930.625 257.625V171.375C930.625 167.563 929.11 163.906 926.415 161.21C923.719 158.515 920.062 157 916.25 157H858.75Z" fill="black" fill-opacity="0.1"/>
<path d="M887.5 191.141C886.07 191.141 884.699 190.573 883.688 189.562C882.677 188.551 882.109 187.18 882.109 185.75C882.109 184.32 882.677 182.949 883.688 181.938C884.699 180.927 886.07 180.359 887.5 180.359C888.93 180.359 890.301 180.927 891.312 181.938C892.323 182.949 892.891 184.32 892.891 185.75C892.891 187.18 892.323 188.551 891.312 189.562C890.301 190.573 888.93 191.141 887.5 191.141ZM887.5 200.125C891.312 200.125 894.969 198.61 897.665 195.915C900.36 193.219 901.875 189.562 901.875 185.75C901.875 181.938 900.36 178.281 897.665 175.585C894.969 172.89 891.312 171.375 887.5 171.375C883.688 171.375 880.031 172.89 877.335 175.585C874.64 178.281 873.125 181.938 873.125 185.75C873.125 189.562 874.64 193.219 877.335 195.915C880.031 198.61 883.688 200.125 887.5 200.125ZM887.5 221.688C884.641 221.688 881.898 222.823 879.877 224.845C877.855 226.867 876.719 229.609 876.719 232.469C876.719 235.328 877.855 238.07 879.877 240.092C881.898 242.114 884.641 243.25 887.5 243.25C890.359 243.25 893.102 242.114 895.123 240.092C897.145 238.07 898.281 235.328 898.281 232.469C898.281 229.609 897.145 226.867 895.123 224.845C893.102 222.823 890.359 221.688 887.5 221.688ZM862.344 232.469C862.344 225.797 864.994 219.398 869.712 214.681C874.43 209.963 880.828 207.312 887.5 207.312C894.172 207.312 900.57 209.963 905.288 214.681C910.006 219.398 912.656 225.797 912.656 232.469C912.656 239.141 910.006 245.539 905.288 250.257C900.57 254.975 894.172 257.625 887.5 257.625C880.828 257.625 874.43 254.975 869.712 250.257C864.994 245.539 862.344 239.141 862.344 232.469Z" fill="black" fill-opacity="0.1"/>
</g>
<g clip-path="url(#clip11_3_152)">
<path d="M999.25 164.188C1001.16 164.188 1002.98 164.945 1004.33 166.293C1005.68 167.641 1006.44 169.469 1006.44 171.375V257.625C1006.44 259.531 1005.68 261.359 1004.33 262.707C1002.98 264.055 1001.16 264.812 999.25 264.812H941.75C939.844 264.812 938.016 264.055 936.668 262.707C935.32 261.359 934.562 259.531 934.562 257.625V171.375C934.562 169.469 935.32 167.641 936.668 166.293C938.016 164.945 939.844 164.188 941.75 164.188H999.25ZM941.75 157C937.938 157 934.281 158.515 931.585 161.21C928.89 163.906 927.375 167.563 927.375 171.375V257.625C927.375 261.437 928.89 265.094 931.585 267.79C934.281 270.485 937.938 272 941.75 272H999.25C1003.06 272 1006.72 270.485 1009.41 267.79C1012.11 265.094 1013.62 261.437 1013.62 257.625V171.375C1013.62 167.563 1012.11 163.906 1009.41 161.21C1006.72 158.515 1003.06 157 999.25 157H941.75Z" fill="black" fill-opacity="0.1"/>
<path d="M970.5 191.141C969.07 191.141 967.699 190.573 966.688 189.562C965.677 188.551 965.109 187.18 965.109 185.75C965.109 184.32 965.677 182.949 966.688 181.938C967.699 180.927 969.07 180.359 970.5 180.359C971.93 180.359 973.301 180.927 974.312 181.938C975.323 182.949 975.891 184.32 975.891 185.75C975.891 187.18 975.323 188.551 974.312 189.562C973.301 190.573 971.93 191.141 970.5 191.141ZM970.5 200.125C974.312 200.125 977.969 198.61 980.665 195.915C983.36 193.219 984.875 189.562 984.875 185.75C984.875 181.938 983.36 178.281 980.665 175.585C977.969 172.89 974.312 171.375 970.5 171.375C966.688 171.375 963.031 172.89 960.335 175.585C957.64 178.281 956.125 181.938 956.125 185.75C956.125 189.562 957.64 193.219 960.335 195.915C963.031 198.61 966.688 200.125 970.5 200.125ZM970.5 221.688C967.641 221.688 964.898 222.823 962.877 224.845C960.855 226.867 959.719 229.609 959.719 232.469C959.719 235.328 960.855 238.07 962.877 240.092C964.898 242.114 967.641 243.25 970.5 243.25C973.359 243.25 976.102 242.114 978.123 240.092C980.145 238.07 981.281 235.328 981.281 232.469C981.281 229.609 980.145 226.867 978.123 224.845C976.102 222.823 973.359 221.688 970.5 221.688ZM945.344 232.469C945.344 225.797 947.994 219.398 952.712 214.681C957.43 209.963 963.828 207.312 970.5 207.312C977.172 207.312 983.57 209.963 988.288 214.681C993.006 219.398 995.656 225.797 995.656 232.469C995.656 239.141 993.006 245.539 988.288 250.257C983.57 254.975 977.172 257.625 970.5 257.625C963.828 257.625 957.43 254.975 952.712 250.257C947.994 245.539 945.344 239.141 945.344 232.469Z" fill="black" fill-opacity="0.1"/>
</g>
<g clip-path="url(#clip12_3_152)">
<path d="M173.631 70.7192C175.148 70.7192 176.602 71.3218 177.675 72.3944C178.748 73.4669 179.35 74.9216 179.35 76.4385V145.069C179.35 146.586 178.748 148.041 177.675 149.113C176.602 150.186 175.148 150.789 173.631 150.789H127.877C126.36 150.789 124.905 150.186 123.833 149.113C122.76 148.041 122.158 146.586 122.158 145.069V76.4385C122.158 74.9216 122.76 73.4669 123.833 72.3944C124.905 71.3218 126.36 70.7192 127.877 70.7192H173.631ZM127.877 65C124.843 65 121.934 66.2051 119.789 68.3503C117.644 70.4954 116.438 73.4048 116.438 76.4385V145.069C116.438 148.103 117.644 151.012 119.789 153.158C121.934 155.303 124.843 156.508 127.877 156.508H173.631C176.665 156.508 179.574 155.303 181.719 153.158C183.864 151.012 185.069 148.103 185.069 145.069V76.4385C185.069 73.4048 183.864 70.4954 181.719 68.3503C179.574 66.2051 176.665 65 173.631 65H127.877Z" fill="black" fill-opacity="0.1"/>
<path d="M150.754 92.1664C149.616 92.1664 148.525 91.7145 147.721 90.91C146.916 90.1056 146.464 89.0146 146.464 87.8769C146.464 86.7393 146.916 85.6483 147.721 84.8439C148.525 84.0394 149.616 83.5875 150.754 83.5875C151.892 83.5875 152.983 84.0394 153.787 84.8439C154.591 85.6483 155.043 86.7393 155.043 87.8769C155.043 89.0146 154.591 90.1056 153.787 90.91C152.983 91.7145 151.892 92.1664 150.754 92.1664ZM150.754 99.3154C153.788 99.3154 156.697 98.1103 158.842 95.9652C160.987 93.82 162.192 90.9106 162.192 87.8769C162.192 84.8433 160.987 81.9339 158.842 79.7887C156.697 77.6436 153.788 76.4385 150.754 76.4385C147.72 76.4385 144.811 77.6436 142.666 79.7887C140.521 81.9339 139.315 84.8433 139.315 87.8769C139.315 90.9106 140.521 93.82 142.666 95.9652C144.811 98.1103 147.72 99.3154 150.754 99.3154ZM150.754 116.473C148.479 116.473 146.297 117.377 144.688 118.986C143.079 120.595 142.175 122.777 142.175 125.052C142.175 127.327 143.079 129.509 144.688 131.118C146.297 132.727 148.479 133.631 150.754 133.631C153.029 133.631 155.211 132.727 156.82 131.118C158.429 129.509 159.333 127.327 159.333 125.052C159.333 122.777 158.429 120.595 156.82 118.986C155.211 117.377 153.029 116.473 150.754 116.473ZM130.737 125.052C130.737 119.743 132.846 114.652 136.6 110.898C140.353 107.144 145.445 105.035 150.754 105.035C156.063 105.035 161.154 107.144 164.908 110.898C168.662 114.652 170.771 119.743 170.771 125.052C170.771 130.361 168.662 135.452 164.908 139.206C161.154 142.96 156.063 145.069 150.754 145.069C145.445 145.069 140.353 142.96 136.6 139.206C132.846 135.452 130.737 130.361 130.737 125.052Z" fill="black" fill-opacity="0.1"/>
</g>
<g clip-path="url(#clip13_3_152)">
<path d="M239.676 70.7192C241.192 70.7192 242.647 71.3218 243.72 72.3944C244.792 73.4669 245.395 74.9216 245.395 76.4385V145.069C245.395 146.586 244.792 148.041 243.72 149.113C242.647 150.186 241.192 150.789 239.676 150.789H193.922C192.405 150.789 190.95 150.186 189.878 149.113C188.805 148.041 188.202 146.586 188.202 145.069V76.4385C188.202 74.9216 188.805 73.4669 189.878 72.3944C190.95 71.3218 192.405 70.7192 193.922 70.7192H239.676ZM193.922 65C190.888 65 187.979 66.2051 185.833 68.3503C183.688 70.4954 182.483 73.4048 182.483 76.4385V145.069C182.483 148.103 183.688 151.012 185.833 153.158C187.979 155.303 190.888 156.508 193.922 156.508H239.676C242.709 156.508 245.619 155.303 247.764 153.158C249.909 151.012 251.114 148.103 251.114 145.069V76.4385C251.114 73.4048 249.909 70.4954 247.764 68.3503C245.619 66.2051 242.709 65 239.676 65H193.922Z" fill="black" fill-opacity="0.1"/>
<path d="M216.799 92.1664C215.661 92.1664 214.57 91.7145 213.766 90.91C212.961 90.1056 212.509 89.0146 212.509 87.8769C212.509 86.7393 212.961 85.6483 213.766 84.8439C214.57 84.0394 215.661 83.5875 216.799 83.5875C217.936 83.5875 219.027 84.0394 219.832 84.8439C220.636 85.6483 221.088 86.7393 221.088 87.8769C221.088 89.0146 220.636 90.1056 219.832 90.91C219.027 91.7145 217.936 92.1664 216.799 92.1664ZM216.799 99.3154C219.832 99.3154 222.742 98.1103 224.887 95.9652C227.032 93.82 228.237 90.9106 228.237 87.8769C228.237 84.8433 227.032 81.9339 224.887 79.7887C222.742 77.6436 219.832 76.4385 216.799 76.4385C213.765 76.4385 210.856 77.6436 208.71 79.7887C206.565 81.9339 205.36 84.8433 205.36 87.8769C205.36 90.9106 206.565 93.82 208.71 95.9652C210.856 98.1103 213.765 99.3154 216.799 99.3154ZM216.799 116.473C214.523 116.473 212.341 117.377 210.732 118.986C209.124 120.595 208.22 122.777 208.22 125.052C208.22 127.327 209.124 129.509 210.732 131.118C212.341 132.727 214.523 133.631 216.799 133.631C219.074 133.631 221.256 132.727 222.865 131.118C224.474 129.509 225.377 127.327 225.377 125.052C225.377 122.777 224.474 120.595 222.865 118.986C221.256 117.377 219.074 116.473 216.799 116.473ZM196.781 125.052C196.781 119.743 198.89 114.652 202.644 110.898C206.398 107.144 211.49 105.035 216.799 105.035C222.108 105.035 227.199 107.144 230.953 110.898C234.707 114.652 236.816 119.743 236.816 125.052C236.816 130.361 234.707 135.452 230.953 139.206C227.199 142.96 222.108 145.069 216.799 145.069C211.49 145.069 206.398 142.96 202.644 139.206C198.89 135.452 196.781 130.361 196.781 125.052Z" fill="black" fill-opacity="0.1"/>
</g>
<g clip-path="url(#clip14_3_152)">
<path d="M305.72 70.7192C307.237 70.7192 308.692 71.3218 309.764 72.3944C310.837 73.4669 311.44 74.9216 311.44 76.4385V145.069C311.44 146.586 310.837 148.041 309.764 149.113C308.692 150.186 307.237 150.789 305.72 150.789H259.966C258.45 150.789 256.995 150.186 255.922 149.113C254.85 148.041 254.247 146.586 254.247 145.069V76.4385C254.247 74.9216 254.85 73.4669 255.922 72.3944C256.995 71.3218 258.45 70.7192 259.966 70.7192H305.72ZM259.966 65C256.933 65 254.023 66.2051 251.878 68.3503C249.733 70.4954 248.528 73.4048 248.528 76.4385V145.069C248.528 148.103 249.733 151.012 251.878 153.158C254.023 155.303 256.933 156.508 259.966 156.508H305.72C308.754 156.508 311.663 155.303 313.809 153.158C315.954 151.012 317.159 148.103 317.159 145.069V76.4385C317.159 73.4048 315.954 70.4954 313.809 68.3503C311.663 66.2051 308.754 65 305.72 65H259.966Z" fill="black" fill-opacity="0.1"/>
<path d="M282.843 92.1664C281.706 92.1664 280.615 91.7145 279.81 90.91C279.006 90.1056 278.554 89.0146 278.554 87.8769C278.554 86.7393 279.006 85.6483 279.81 84.8439C280.615 84.0394 281.706 83.5875 282.843 83.5875C283.981 83.5875 285.072 84.0394 285.876 84.8439C286.681 85.6483 287.133 86.7393 287.133 87.8769C287.133 89.0146 286.681 90.1056 285.876 90.91C285.072 91.7145 283.981 92.1664 282.843 92.1664ZM282.843 99.3154C285.877 99.3154 288.786 98.1103 290.932 95.9652C293.077 93.82 294.282 90.9106 294.282 87.8769C294.282 84.8433 293.077 81.9339 290.932 79.7887C288.786 77.6436 285.877 76.4385 282.843 76.4385C279.81 76.4385 276.9 77.6436 274.755 79.7887C272.61 81.9339 271.405 84.8433 271.405 87.8769C271.405 90.9106 272.61 93.82 274.755 95.9652C276.9 98.1103 279.81 99.3154 282.843 99.3154ZM282.843 116.473C280.568 116.473 278.386 117.377 276.777 118.986C275.168 120.595 274.265 122.777 274.265 125.052C274.265 127.327 275.168 129.509 276.777 131.118C278.386 132.727 280.568 133.631 282.843 133.631C285.119 133.631 287.301 132.727 288.91 131.118C290.518 129.509 291.422 127.327 291.422 125.052C291.422 122.777 290.518 120.595 288.91 118.986C287.301 117.377 285.119 116.473 282.843 116.473ZM262.826 125.052C262.826 119.743 264.935 114.652 268.689 110.898C272.443 107.144 277.534 105.035 282.843 105.035C288.152 105.035 293.244 107.144 296.998 110.898C300.752 114.652 302.861 119.743 302.861 125.052C302.861 130.361 300.752 135.452 296.998 139.206C293.244 142.96 288.152 145.069 282.843 145.069C277.534 145.069 272.443 142.96 268.689 139.206C264.935 135.452 262.826 130.361 262.826 125.052Z" fill="black" fill-opacity="0.1"/>
</g>
<g clip-path="url(#clip15_3_152)">
<path d="M371.765 70.7192C373.282 70.7192 374.737 71.3218 375.809 72.3944C376.882 73.4669 377.484 74.9216 377.484 76.4385V145.069C377.484 146.586 376.882 148.041 375.809 149.113C374.737 150.186 373.282 150.789 371.765 150.789H326.011C324.494 150.789 323.04 150.186 321.967 149.113C320.895 148.041 320.292 146.586 320.292 145.069V76.4385C320.292 74.9216 320.895 73.4669 321.967 72.3944C323.04 71.3218 324.494 70.7192 326.011 70.7192H371.765ZM326.011 65C322.978 65 320.068 66.2051 317.923 68.3503C315.778 70.4954 314.573 73.4048 314.573 76.4385V145.069C314.573 148.103 315.778 151.012 317.923 153.158C320.068 155.303 322.978 156.508 326.011 156.508H371.765C374.799 156.508 377.708 155.303 379.853 153.158C381.998 151.012 383.204 148.103 383.204 145.069V76.4385C383.204 73.4048 381.998 70.4954 379.853 68.3503C377.708 66.2051 374.799 65 371.765 65H326.011Z" fill="black" fill-opacity="0.1"/>
<path d="M348.888 92.1664C347.751 92.1664 346.659 91.7145 345.855 90.91C345.051 90.1056 344.599 89.0146 344.599 87.8769C344.599 86.7393 345.051 85.6483 345.855 84.8439C346.659 84.0394 347.751 83.5875 348.888 83.5875C350.026 83.5875 351.117 84.0394 351.921 84.8439C352.726 85.6483 353.178 86.7393 353.178 87.8769C353.178 89.0146 352.726 90.1056 351.921 90.91C351.117 91.7145 350.026 92.1664 348.888 92.1664ZM348.888 99.3154C351.922 99.3154 354.831 98.1103 356.976 95.9652C359.121 93.82 360.327 90.9106 360.327 87.8769C360.327 84.8433 359.121 81.9339 356.976 79.7887C354.831 77.6436 351.922 76.4385 348.888 76.4385C345.854 76.4385 342.945 77.6436 340.8 79.7887C338.655 81.9339 337.45 84.8433 337.45 87.8769C337.45 90.9106 338.655 93.82 340.8 95.9652C342.945 98.1103 345.854 99.3154 348.888 99.3154ZM348.888 116.473C346.613 116.473 344.431 117.377 342.822 118.986C341.213 120.595 340.309 122.777 340.309 125.052C340.309 127.327 341.213 129.509 342.822 131.118C344.431 132.727 346.613 133.631 348.888 133.631C351.163 133.631 353.345 132.727 354.954 131.118C356.563 129.509 357.467 127.327 357.467 125.052C357.467 122.777 356.563 120.595 354.954 118.986C353.345 117.377 351.163 116.473 348.888 116.473ZM328.871 125.052C328.871 119.743 330.98 114.652 334.734 110.898C338.488 107.144 343.579 105.035 348.888 105.035C354.197 105.035 359.289 107.144 363.043 110.898C366.797 114.652 368.905 119.743 368.905 125.052C368.905 130.361 366.797 135.452 363.043 139.206C359.289 142.96 354.197 145.069 348.888 145.069C343.579 145.069 338.488 142.96 334.734 139.206C330.98 135.452 328.871 130.361 328.871 125.052Z" fill="black" fill-opacity="0.1"/>
</g>
<g clip-path="url(#clip16_3_152)">
<path d="M437.81 70.7192C439.327 70.7192 440.781 71.3218 441.854 72.3944C442.927 73.4669 443.529 74.9216 443.529 76.4385V145.069C443.529 146.586 442.927 148.041 441.854 149.113C440.781 150.186 439.327 150.789 437.81 150.789H392.056C390.539 150.789 389.084 150.186 388.012 149.113C386.939 148.041 386.337 146.586 386.337 145.069V76.4385C386.337 74.9216 386.939 73.4669 388.012 72.3944C389.084 71.3218 390.539 70.7192 392.056 70.7192H437.81ZM392.056 65C389.022 65 386.113 66.2051 383.968 68.3503C381.823 70.4954 380.617 73.4048 380.617 76.4385V145.069C380.617 148.103 381.823 151.012 383.968 153.158C386.113 155.303 389.022 156.508 392.056 156.508H437.81C440.843 156.508 443.753 155.303 445.898 153.158C448.043 151.012 449.248 148.103 449.248 145.069V76.4385C449.248 73.4048 448.043 70.4954 445.898 68.3503C443.753 66.2051 440.843 65 437.81 65H392.056Z" fill="black" fill-opacity="0.1"/>
<path d="M414.933 92.1664C413.795 92.1664 412.704 91.7145 411.9 90.91C411.095 90.1056 410.643 89.0146 410.643 87.8769C410.643 86.7393 411.095 85.6483 411.9 84.8439C412.704 84.0394 413.795 83.5875 414.933 83.5875C416.071 83.5875 417.162 84.0394 417.966 84.8439C418.77 85.6483 419.222 86.7393 419.222 87.8769C419.222 89.0146 418.77 90.1056 417.966 90.91C417.162 91.7145 416.071 92.1664 414.933 92.1664ZM414.933 99.3154C417.967 99.3154 420.876 98.1103 423.021 95.9652C425.166 93.82 426.371 90.9106 426.371 87.8769C426.371 84.8433 425.166 81.9339 423.021 79.7887C420.876 77.6436 417.967 76.4385 414.933 76.4385C411.899 76.4385 408.99 77.6436 406.845 79.7887C404.7 81.9339 403.494 84.8433 403.494 87.8769C403.494 90.9106 404.7 93.82 406.845 95.9652C408.99 98.1103 411.899 99.3154 414.933 99.3154ZM414.933 116.473C412.658 116.473 410.476 117.377 408.867 118.986C407.258 120.595 406.354 122.777 406.354 125.052C406.354 127.327 407.258 129.509 408.867 131.118C410.476 132.727 412.658 133.631 414.933 133.631C417.208 133.631 419.39 132.727 420.999 131.118C422.608 129.509 423.512 127.327 423.512 125.052C423.512 122.777 422.608 120.595 420.999 118.986C419.39 117.377 417.208 116.473 414.933 116.473ZM394.916 125.052C394.916 119.743 397.025 114.652 400.778 110.898C404.532 107.144 409.624 105.035 414.933 105.035C420.242 105.035 425.333 107.144 429.087 110.898C432.841 114.652 434.95 119.743 434.95 125.052C434.95 130.361 432.841 135.452 429.087 139.206C425.333 142.96 420.242 145.069 414.933 145.069C409.624 145.069 404.532 142.96 400.778 139.206C397.025 135.452 394.916 130.361 394.916 125.052Z" fill="black" fill-opacity="0.1"/>
</g>
<g clip-path="url(#clip17_3_152)">
<path d="M503.855 70.7192C505.371 70.7192 506.826 71.3218 507.899 72.3944C508.971 73.4669 509.574 74.9216 509.574 76.4385V145.069C509.574 146.586 508.971 148.041 507.899 149.113C506.826 150.186 505.371 150.789 503.855 150.789H458.101C456.584 150.789 455.129 150.186 454.057 149.113C452.984 148.041 452.381 146.586 452.381 145.069V76.4385C452.381 74.9216 452.984 73.4669 454.057 72.3944C455.129 71.3218 456.584 70.7192 458.101 70.7192H503.855ZM458.101 65C455.067 65 452.158 66.2051 450.012 68.3503C447.867 70.4954 446.662 73.4048 446.662 76.4385V145.069C446.662 148.103 447.867 151.012 450.012 153.158C452.158 155.303 455.067 156.508 458.101 156.508H503.855C506.888 156.508 509.798 155.303 511.943 153.158C514.088 151.012 515.293 148.103 515.293 145.069V76.4385C515.293 73.4048 514.088 70.4954 511.943 68.3503C509.798 66.2051 506.888 65 503.855 65H458.101Z" fill="black"/>
<path d="M480.978 92.1664C479.84 92.1664 478.749 91.7145 477.945 90.91C477.14 90.1056 476.688 89.0146 476.688 87.8769C476.688 86.7393 477.14 85.6483 477.945 84.8439C478.749 84.0394 479.84 83.5875 480.978 83.5875C482.115 83.5875 483.206 84.0394 484.011 84.8439C484.815 85.6483 485.267 86.7393 485.267 87.8769C485.267 89.0146 484.815 90.1056 484.011 90.91C483.206 91.7145 482.115 92.1664 480.978 92.1664ZM480.978 99.3154C484.011 99.3154 486.921 98.1103 489.066 95.9652C491.211 93.82 492.416 90.9106 492.416 87.8769C492.416 84.8433 491.211 81.9339 489.066 79.7887C486.921 77.6436 484.011 76.4385 480.978 76.4385C477.944 76.4385 475.035 77.6436 472.889 79.7887C470.744 81.9339 469.539 84.8433 469.539 87.8769C469.539 90.9106 470.744 93.82 472.889 95.9652C475.035 98.1103 477.944 99.3154 480.978 99.3154ZM480.978 116.473C478.702 116.473 476.52 117.377 474.911 118.986C473.303 120.595 472.399 122.777 472.399 125.052C472.399 127.327 473.303 129.509 474.911 131.118C476.52 132.727 478.702 133.631 480.978 133.631C483.253 133.631 485.435 132.727 487.044 131.118C488.653 129.509 489.556 127.327 489.556 125.052C489.556 122.777 488.653 120.595 487.044 118.986C485.435 117.377 483.253 116.473 480.978 116.473ZM460.96 125.052C460.96 119.743 463.069 114.652 466.823 110.898C470.577 107.144 475.669 105.035 480.978 105.035C486.287 105.035 491.378 107.144 495.132 110.898C498.886 114.652 500.995 119.743 500.995 125.052C500.995 130.361 498.886 135.452 495.132 139.206C491.378 142.96 486.287 145.069 480.978 145.069C475.669 145.069 470.577 142.96 466.823 139.206C463.069 135.452 460.96 130.361 460.96 125.052Z" fill="black"/>
</g>
<g clip-path="url(#clip18_3_152)">
<path d="M569.899 70.7192C571.416 70.7192 572.871 71.3218 573.943 72.3944C575.016 73.4669 575.619 74.9216 575.619 76.4385V145.069C575.619 146.586 575.016 148.041 573.943 149.113C572.871 150.186 571.416 150.789 569.899 150.789H524.145C522.629 150.789 521.174 150.186 520.101 149.113C519.029 148.041 518.426 146.586 518.426 145.069V76.4385C518.426 74.9216 519.029 73.4669 520.101 72.3944C521.174 71.3218 522.629 70.7192 524.145 70.7192H569.899ZM524.145 65C521.112 65 518.202 66.2051 516.057 68.3503C513.912 70.4954 512.707 73.4048 512.707 76.4385V145.069C512.707 148.103 513.912 151.012 516.057 153.158C518.202 155.303 521.112 156.508 524.145 156.508H569.899C572.933 156.508 575.842 155.303 577.988 153.158C580.133 151.012 581.338 148.103 581.338 145.069V76.4385C581.338 73.4048 580.133 70.4954 577.988 68.3503C575.842 66.2051 572.933 65 569.899 65H524.145Z" fill="black"/>
<path d="M547.022 92.1664C545.885 92.1664 544.794 91.7145 543.989 90.91C543.185 90.1056 542.733 89.0146 542.733 87.8769C542.733 86.7393 543.185 85.6483 543.989 84.8439C544.794 84.0394 545.885 83.5875 547.022 83.5875C548.16 83.5875 549.251 84.0394 550.055 84.8439C550.86 85.6483 551.312 86.7393 551.312 87.8769C551.312 89.0146 550.86 90.1056 550.055 90.91C549.251 91.7145 548.16 92.1664 547.022 92.1664ZM547.022 99.3154C550.056 99.3154 552.965 98.1103 555.111 95.9652C557.256 93.82 558.461 90.9106 558.461 87.8769C558.461 84.8433 557.256 81.9339 555.111 79.7887C552.965 77.6436 550.056 76.4385 547.022 76.4385C543.989 76.4385 541.079 77.6436 538.934 79.7887C536.789 81.9339 535.584 84.8433 535.584 87.8769C535.584 90.9106 536.789 93.82 538.934 95.9652C541.079 98.1103 543.989 99.3154 547.022 99.3154ZM547.022 116.473C544.747 116.473 542.565 117.377 540.956 118.986C539.347 120.595 538.444 122.777 538.444 125.052C538.444 127.327 539.347 129.509 540.956 131.118C542.565 132.727 544.747 133.631 547.022 133.631C549.298 133.631 551.48 132.727 553.089 131.118C554.697 129.509 555.601 127.327 555.601 125.052C555.601 122.777 554.697 120.595 553.089 118.986C551.48 117.377 549.298 116.473 547.022 116.473ZM527.005 125.052C527.005 119.743 529.114 114.652 532.868 110.898C536.622 107.144 541.713 105.035 547.022 105.035C552.331 105.035 557.423 107.144 561.177 110.898C564.931 114.652 567.04 119.743 567.04 125.052C567.04 130.361 564.931 135.452 561.177 139.206C557.423 142.96 552.331 145.069 547.022 145.069C541.713 145.069 536.622 142.96 532.868 139.206C529.114 135.452 527.005 130.361 527.005 125.052Z" fill="black"/>
</g>
<g clip-path="url(#clip19_3_152)">
<path d="M635.944 70.7192C637.461 70.7192 638.916 71.3218 639.988 72.3944C641.061 73.4669 641.663 74.9216 641.663 76.4385V145.069C641.663 146.586 641.061 148.041 639.988 149.113C638.916 150.186 637.461 150.789 635.944 150.789H590.19C588.673 150.789 587.219 150.186 586.146 149.113C585.074 148.041 584.471 146.586 584.471 145.069V76.4385C584.471 74.9216 585.074 73.4669 586.146 72.3944C587.219 71.3218 588.673 70.7192 590.19 70.7192H635.944ZM590.19 65C587.157 65 584.247 66.2051 582.102 68.3503C579.957 70.4954 578.752 73.4048 578.752 76.4385V145.069C578.752 148.103 579.957 151.012 582.102 153.158C584.247 155.303 587.157 156.508 590.19 156.508H635.944C638.978 156.508 641.887 155.303 644.032 153.158C646.177 151.012 647.383 148.103 647.383 145.069V76.4385C647.383 73.4048 646.177 70.4954 644.032 68.3503C641.887 66.2051 638.978 65 635.944 65H590.19Z" fill="black" fill-opacity="0.1"/>
<path d="M613.067 92.1664C611.93 92.1664 610.838 91.7145 610.034 90.91C609.23 90.1056 608.778 89.0146 608.778 87.8769C608.778 86.7393 609.23 85.6483 610.034 84.8439C610.838 84.0394 611.93 83.5875 613.067 83.5875C614.205 83.5875 615.296 84.0394 616.1 84.8439C616.905 85.6483 617.357 86.7393 617.357 87.8769C617.357 89.0146 616.905 90.1056 616.1 90.91C615.296 91.7145 614.205 92.1664 613.067 92.1664ZM613.067 99.3154C616.101 99.3154 619.01 98.1103 621.155 95.9652C623.3 93.82 624.506 90.9106 624.506 87.8769C624.506 84.8433 623.3 81.9339 621.155 79.7887C619.01 77.6436 616.101 76.4385 613.067 76.4385C610.033 76.4385 607.124 77.6436 604.979 79.7887C602.834 81.9339 601.629 84.8433 601.629 87.8769C601.629 90.9106 602.834 93.82 604.979 95.9652C607.124 98.1103 610.033 99.3154 613.067 99.3154ZM613.067 116.473C610.792 116.473 608.61 117.377 607.001 118.986C605.392 120.595 604.488 122.777 604.488 125.052C604.488 127.327 605.392 129.509 607.001 131.118C608.61 132.727 610.792 133.631 613.067 133.631C615.342 133.631 617.524 132.727 619.133 131.118C620.742 129.509 621.646 127.327 621.646 125.052C621.646 122.777 620.742 120.595 619.133 118.986C617.524 117.377 615.342 116.473 613.067 116.473ZM593.05 125.052C593.05 119.743 595.159 114.652 598.913 110.898C602.667 107.144 607.758 105.035 613.067 105.035C618.376 105.035 623.468 107.144 627.222 110.898C630.975 114.652 633.084 119.743 633.084 125.052C633.084 130.361 630.975 135.452 627.222 139.206C623.468 142.96 618.376 145.069 613.067 145.069C607.758 145.069 602.667 142.96 598.913 139.206C595.159 135.452 593.05 130.361 593.05 125.052Z" fill="black" fill-opacity="0.1"/>
</g>
<g clip-path="url(#clip20_3_152)">
<path d="M701.989 70.7192C703.506 70.7192 704.96 71.3218 706.033 72.3944C707.105 73.4669 707.708 74.9216 707.708 76.4385V145.069C707.708 146.586 707.105 148.041 706.033 149.113C704.96 150.186 703.506 150.789 701.989 150.789H656.235C654.718 150.789 653.263 150.186 652.191 149.113C651.118 148.041 650.516 146.586 650.516 145.069V76.4385C650.516 74.9216 651.118 73.4669 652.191 72.3944C653.263 71.3218 654.718 70.7192 656.235 70.7192H701.989ZM656.235 65C653.201 65 650.292 66.2051 648.147 68.3503C646.002 70.4954 644.796 73.4048 644.796 76.4385V145.069C644.796 148.103 646.002 151.012 648.147 153.158C650.292 155.303 653.201 156.508 656.235 156.508H701.989C705.022 156.508 707.932 155.303 710.077 153.158C712.222 151.012 713.427 148.103 713.427 145.069V76.4385C713.427 73.4048 712.222 70.4954 710.077 68.3503C707.932 66.2051 705.022 65 701.989 65H656.235Z" fill="black" fill-opacity="0.1"/>
<path d="M679.112 92.1664C677.974 92.1664 676.883 91.7145 676.079 90.91C675.274 90.1056 674.822 89.0146 674.822 87.8769C674.822 86.7393 675.274 85.6483 676.079 84.8439C676.883 84.0394 677.974 83.5875 679.112 83.5875C680.249 83.5875 681.341 84.0394 682.145 84.8439C682.949 85.6483 683.401 86.7393 683.401 87.8769C683.401 89.0146 682.949 90.1056 682.145 90.91C681.341 91.7145 680.249 92.1664 679.112 92.1664ZM679.112 99.3154C682.146 99.3154 685.055 98.1103 687.2 95.9652C689.345 93.82 690.55 90.9106 690.55 87.8769C690.55 84.8433 689.345 81.9339 687.2 79.7887C685.055 77.6436 682.146 76.4385 679.112 76.4385C676.078 76.4385 673.169 77.6436 671.024 79.7887C668.879 81.9339 667.673 84.8433 667.673 87.8769C667.673 90.9106 668.879 93.82 671.024 95.9652C673.169 98.1103 676.078 99.3154 679.112 99.3154ZM679.112 116.473C676.837 116.473 674.655 117.377 673.046 118.986C671.437 120.595 670.533 122.777 670.533 125.052C670.533 127.327 671.437 129.509 673.046 131.118C674.655 132.727 676.837 133.631 679.112 133.631C681.387 133.631 683.569 132.727 685.178 131.118C686.787 129.509 687.691 127.327 687.691 125.052C687.691 122.777 686.787 120.595 685.178 118.986C683.569 117.377 681.387 116.473 679.112 116.473ZM659.095 125.052C659.095 119.743 661.204 114.652 664.957 110.898C668.711 107.144 673.803 105.035 679.112 105.035C684.421 105.035 689.512 107.144 693.266 110.898C697.02 114.652 699.129 119.743 699.129 125.052C699.129 130.361 697.02 135.452 693.266 139.206C689.512 142.96 684.421 145.069 679.112 145.069C673.803 145.069 668.711 142.96 664.957 139.206C661.204 135.452 659.095 130.361 659.095 125.052Z" fill="black" fill-opacity="0.1"/>
</g>
<g clip-path="url(#clip21_3_152)">
<path d="M768.034 70.7192C769.55 70.7192 771.005 71.3218 772.078 72.3944C773.15 73.4669 773.753 74.9216 773.753 76.4385V145.069C773.753 146.586 773.15 148.041 772.078 149.113C771.005 150.186 769.55 150.789 768.034 150.789H722.28C720.763 150.789 719.308 150.186 718.236 149.113C717.163 148.041 716.56 146.586 716.56 145.069V76.4385C716.56 74.9216 717.163 73.4669 718.236 72.3944C719.308 71.3218 720.763 70.7192 722.28 70.7192H768.034ZM722.28 65C719.246 65 716.337 66.2051 714.191 68.3503C712.046 70.4954 710.841 73.4048 710.841 76.4385V145.069C710.841 148.103 712.046 151.012 714.191 153.158C716.337 155.303 719.246 156.508 722.28 156.508H768.034C771.067 156.508 773.977 155.303 776.122 153.158C778.267 151.012 779.472 148.103 779.472 145.069V76.4385C779.472 73.4048 778.267 70.4954 776.122 68.3503C773.977 66.2051 771.067 65 768.034 65H722.28Z" fill="black" fill-opacity="0.1"/>
<path d="M745.157 92.1664C744.019 92.1664 742.928 91.7145 742.124 90.91C741.319 90.1056 740.867 89.0146 740.867 87.8769C740.867 86.7393 741.319 85.6483 742.124 84.8439C742.928 84.0394 744.019 83.5875 745.157 83.5875C746.294 83.5875 747.385 84.0394 748.19 84.8439C748.994 85.6483 749.446 86.7393 749.446 87.8769C749.446 89.0146 748.994 90.1056 748.19 90.91C747.385 91.7145 746.294 92.1664 745.157 92.1664ZM745.157 99.3154C748.19 99.3154 751.1 98.1103 753.245 95.9652C755.39 93.82 756.595 90.9106 756.595 87.8769C756.595 84.8433 755.39 81.9339 753.245 79.7887C751.1 77.6436 748.19 76.4385 745.157 76.4385C742.123 76.4385 739.214 77.6436 737.068 79.7887C734.923 81.9339 733.718 84.8433 733.718 87.8769C733.718 90.9106 734.923 93.82 737.068 95.9652C739.214 98.1103 742.123 99.3154 745.157 99.3154ZM745.157 116.473C742.881 116.473 740.699 117.377 739.09 118.986C737.482 120.595 736.578 122.777 736.578 125.052C736.578 127.327 737.482 129.509 739.09 131.118C740.699 132.727 742.881 133.631 745.157 133.631C747.432 133.631 749.614 132.727 751.223 131.118C752.832 129.509 753.735 127.327 753.735 125.052C753.735 122.777 752.832 120.595 751.223 118.986C749.614 117.377 747.432 116.473 745.157 116.473ZM725.139 125.052C725.139 119.743 727.248 114.652 731.002 110.898C734.756 107.144 739.848 105.035 745.157 105.035C750.466 105.035 755.557 107.144 759.311 110.898C763.065 114.652 765.174 119.743 765.174 125.052C765.174 130.361 763.065 135.452 759.311 139.206C755.557 142.96 750.466 145.069 745.157 145.069C739.848 145.069 734.756 142.96 731.002 139.206C727.248 135.452 725.139 130.361 725.139 125.052Z" fill="black" fill-opacity="0.1"/>
</g>
<g clip-path="url(#clip22_3_152)">
<path d="M834.078 70.7192C835.595 70.7192 837.05 71.3218 838.122 72.3944C839.195 73.4669 839.798 74.9216 839.798 76.4385V145.069C839.798 146.586 839.195 148.041 838.122 149.113C837.05 150.186 835.595 150.789 834.078 150.789H788.324C786.808 150.789 785.353 150.186 784.28 149.113C783.208 148.041 782.605 146.586 782.605 145.069V76.4385C782.605 74.9216 783.208 73.4669 784.28 72.3944C785.353 71.3218 786.808 70.7192 788.324 70.7192H834.078ZM788.324 65C785.291 65 782.381 66.2051 780.236 68.3503C778.091 70.4954 776.886 73.4048 776.886 76.4385V145.069C776.886 148.103 778.091 151.012 780.236 153.158C782.381 155.303 785.291 156.508 788.324 156.508H834.078C837.112 156.508 840.021 155.303 842.167 153.158C844.312 151.012 845.517 148.103 845.517 145.069V76.4385C845.517 73.4048 844.312 70.4954 842.167 68.3503C840.021 66.2051 837.112 65 834.078 65H788.324Z" fill="black" fill-opacity="0.1"/>
<path d="M811.201 92.1664C810.064 92.1664 808.973 91.7145 808.168 90.91C807.364 90.1056 806.912 89.0146 806.912 87.8769C806.912 86.7393 807.364 85.6483 808.168 84.8439C808.973 84.0394 810.064 83.5875 811.201 83.5875C812.339 83.5875 813.43 84.0394 814.234 84.8439C815.039 85.6483 815.491 86.7393 815.491 87.8769C815.491 89.0146 815.039 90.1056 814.234 90.91C813.43 91.7145 812.339 92.1664 811.201 92.1664ZM811.201 99.3154C814.235 99.3154 817.144 98.1103 819.29 95.9652C821.435 93.82 822.64 90.9106 822.64 87.8769C822.64 84.8433 821.435 81.9339 819.29 79.7887C817.144 77.6436 814.235 76.4385 811.201 76.4385C808.168 76.4385 805.258 77.6436 803.113 79.7887C800.968 81.9339 799.763 84.8433 799.763 87.8769C799.763 90.9106 800.968 93.82 803.113 95.9652C805.258 98.1103 808.168 99.3154 811.201 99.3154ZM811.201 116.473C808.926 116.473 806.744 117.377 805.135 118.986C803.526 120.595 802.622 122.777 802.622 125.052C802.622 127.327 803.526 129.509 805.135 131.118C806.744 132.727 808.926 133.631 811.201 133.631C813.477 133.631 815.659 132.727 817.268 131.118C818.876 129.509 819.78 127.327 819.78 125.052C819.78 122.777 818.876 120.595 817.268 118.986C815.659 117.377 813.477 116.473 811.201 116.473ZM791.184 125.052C791.184 119.743 793.293 114.652 797.047 110.898C800.801 107.144 805.892 105.035 811.201 105.035C816.51 105.035 821.602 107.144 825.356 110.898C829.11 114.652 831.219 119.743 831.219 125.052C831.219 130.361 829.11 135.452 825.356 139.206C821.602 142.96 816.51 145.069 811.201 145.069C805.892 145.069 800.801 142.96 797.047 139.206C793.293 135.452 791.184 130.361 791.184 125.052Z" fill="black" fill-opacity="0.1"/>
</g>
<g clip-path="url(#clip23_3_152)">
<path d="M900.123 70.7192C901.64 70.7192 903.095 71.3218 904.167 72.3944C905.24 73.4669 905.842 74.9216 905.842 76.4385V145.069C905.842 146.586 905.24 148.041 904.167 149.113C903.095 150.186 901.64 150.789 900.123 150.789H854.369C852.852 150.789 851.398 150.186 850.325 149.113C849.252 148.041 848.65 146.586 848.65 145.069V76.4385C848.65 74.9216 849.252 73.4669 850.325 72.3944C851.398 71.3218 852.852 70.7192 854.369 70.7192H900.123ZM854.369 65C851.335 65 848.426 66.2051 846.281 68.3503C844.136 70.4954 842.931 73.4048 842.931 76.4385V145.069C842.931 148.103 844.136 151.012 846.281 153.158C848.426 155.303 851.335 156.508 854.369 156.508H900.123C903.157 156.508 906.066 155.303 908.211 153.158C910.356 151.012 911.562 148.103 911.562 145.069V76.4385C911.562 73.4048 910.356 70.4954 908.211 68.3503C906.066 66.2051 903.157 65 900.123 65H854.369Z" fill="black" fill-opacity="0.1"/>
<path d="M877.246 92.1664C876.108 92.1664 875.017 91.7145 874.213 90.91C873.409 90.1056 872.957 89.0146 872.957 87.8769C872.957 86.7393 873.409 85.6483 874.213 84.8439C875.017 84.0394 876.108 83.5875 877.246 83.5875C878.384 83.5875 879.475 84.0394 880.279 84.8439C881.084 85.6483 881.536 86.7393 881.536 87.8769C881.536 89.0146 881.084 90.1056 880.279 90.91C879.475 91.7145 878.384 92.1664 877.246 92.1664ZM877.246 99.3154C880.28 99.3154 883.189 98.1103 885.334 95.9652C887.479 93.82 888.685 90.9106 888.685 87.8769C888.685 84.8433 887.479 81.9339 885.334 79.7887C883.189 77.6436 880.28 76.4385 877.246 76.4385C874.212 76.4385 871.303 77.6436 869.158 79.7887C867.013 81.9339 865.808 84.8433 865.808 87.8769C865.808 90.9106 867.013 93.82 869.158 95.9652C871.303 98.1103 874.212 99.3154 877.246 99.3154ZM877.246 116.473C874.971 116.473 872.789 117.377 871.18 118.986C869.571 120.595 868.667 122.777 868.667 125.052C868.667 127.327 869.571 129.509 871.18 131.118C872.789 132.727 874.971 133.631 877.246 133.631C879.521 133.631 881.703 132.727 883.312 131.118C884.921 129.509 885.825 127.327 885.825 125.052C885.825 122.777 884.921 120.595 883.312 118.986C881.703 117.377 879.521 116.473 877.246 116.473ZM857.229 125.052C857.229 119.743 859.338 114.652 863.092 110.898C866.846 107.144 871.937 105.035 877.246 105.035C882.555 105.035 887.646 107.144 891.4 110.898C895.154 114.652 897.263 119.743 897.263 125.052C897.263 130.361 895.154 135.452 891.4 139.206C887.646 142.96 882.555 145.069 877.246 145.069C871.937 145.069 866.846 142.96 863.092 139.206C859.338 135.452 857.229 130.361 857.229 125.052Z" fill="black" fill-opacity="0.1"/>
</g>
<g clip-path="url(#clip24_3_152)">
<path d="M263.631 4.21924C264.75 4.21924 265.823 4.66376 266.614 5.45502C267.406 6.24628 267.85 7.31946 267.85 8.43847V59.0693C267.85 60.1883 267.406 61.2615 266.614 62.0528C265.823 62.844 264.75 63.2885 263.631 63.2885H229.877C228.758 63.2885 227.685 62.844 226.893 62.0528C226.102 61.2615 225.658 60.1883 225.658 59.0693V8.43847C225.658 7.31946 226.102 6.24628 226.893 5.45502C227.685 4.66376 228.758 4.21924 229.877 4.21924H263.631ZM229.877 0C227.639 0 225.493 0.889051 223.91 2.47157C222.328 4.05409 221.438 6.20045 221.438 8.43847V59.0693C221.438 61.3073 222.328 63.4537 223.91 65.0362C225.493 66.6187 227.639 67.5078 229.877 67.5078H263.631C265.869 67.5078 268.015 66.6187 269.598 65.0362C271.18 63.4537 272.069 61.3073 272.069 59.0693V8.43847C272.069 6.20045 271.18 4.05409 269.598 2.47157C268.015 0.889051 265.869 0 263.631 0L229.877 0Z" fill="black" fill-opacity="0.1"/>
<path d="M246.754 20.0414C245.915 20.0414 245.11 19.708 244.516 19.1145C243.923 18.5211 243.589 17.7162 243.589 16.8769C243.589 16.0377 243.923 15.2328 244.516 14.6394C245.11 14.0459 245.915 13.7125 246.754 13.7125C247.593 13.7125 248.398 14.0459 248.991 14.6394C249.585 15.2328 249.918 16.0377 249.918 16.8769C249.918 17.7162 249.585 18.5211 248.991 19.1145C248.398 19.708 247.593 20.0414 246.754 20.0414ZM246.754 25.3154C248.992 25.3154 251.138 24.4264 252.721 22.8439C254.303 21.2613 255.192 19.115 255.192 16.8769C255.192 14.6389 254.303 12.4926 252.721 10.91C251.138 9.32753 248.992 8.43848 246.754 8.43848C244.516 8.43848 242.37 9.32753 240.787 10.91C239.204 12.4926 238.315 14.6389 238.315 16.8769C238.315 19.115 239.204 21.2613 240.787 22.8439C242.37 24.4264 244.516 25.3154 246.754 25.3154ZM246.754 37.9731C245.075 37.9731 243.466 38.6399 242.279 39.8268C241.092 41.0137 240.425 42.6235 240.425 44.302C240.425 45.9805 241.092 47.5903 242.279 48.7772C243.466 49.9641 245.075 50.6308 246.754 50.6308C248.432 50.6308 250.042 49.9641 251.229 48.7772C252.416 47.5903 253.083 45.9805 253.083 44.302C253.083 42.6235 252.416 41.0137 251.229 39.8268C250.042 38.6399 248.432 37.9731 246.754 37.9731ZM231.987 44.302C231.987 40.3854 233.542 36.6293 236.312 33.8599C239.081 31.0905 242.837 29.5347 246.754 29.5347C250.67 29.5347 254.427 31.0905 257.196 33.8599C259.965 36.6293 261.521 40.3854 261.521 44.302C261.521 48.2185 259.965 51.9747 257.196 54.7441C254.427 57.5135 250.67 59.0693 246.754 59.0693C242.837 59.0693 239.081 57.5135 236.312 54.7441C233.542 51.9747 231.987 48.2185 231.987 44.302Z" fill="black" fill-opacity="0.1"/>
</g>
<g clip-path="url(#clip25_3_152)">
<path d="M312.354 4.21924C313.473 4.21924 314.546 4.66376 315.337 5.45502C316.129 6.24628 316.573 7.31946 316.573 8.43847V59.0693C316.573 60.1883 316.129 61.2615 315.337 62.0528C314.546 62.844 313.473 63.2885 312.354 63.2885H278.6C277.481 63.2885 276.408 62.844 275.617 62.0528C274.825 61.2615 274.381 60.1883 274.381 59.0693V8.43847C274.381 7.31946 274.825 6.24628 275.617 5.45502C276.408 4.66376 277.481 4.21924 278.6 4.21924H312.354ZM278.6 0C276.362 0 274.216 0.889051 272.633 2.47157C271.051 4.05409 270.161 6.20045 270.161 8.43847V59.0693C270.161 61.3073 271.051 63.4537 272.633 65.0362C274.216 66.6187 276.362 67.5078 278.6 67.5078H312.354C314.592 67.5078 316.738 66.6187 318.321 65.0362C319.903 63.4537 320.792 61.3073 320.792 59.0693V8.43847C320.792 6.20045 319.903 4.05409 318.321 2.47157C316.738 0.889051 314.592 0 312.354 0L278.6 0Z" fill="black" fill-opacity="0.1"/>
<path d="M295.477 20.0414C294.638 20.0414 293.833 19.708 293.239 19.1145C292.646 18.5211 292.312 17.7162 292.312 16.8769C292.312 16.0377 292.646 15.2328 293.239 14.6394C293.833 14.0459 294.638 13.7125 295.477 13.7125C296.316 13.7125 297.121 14.0459 297.714 14.6394C298.308 15.2328 298.641 16.0377 298.641 16.8769C298.641 17.7162 298.308 18.5211 297.714 19.1145C297.121 19.708 296.316 20.0414 295.477 20.0414ZM295.477 25.3154C297.715 25.3154 299.861 24.4264 301.444 22.8439C303.026 21.2613 303.915 19.115 303.915 16.8769C303.915 14.6389 303.026 12.4926 301.444 10.91C299.861 9.32753 297.715 8.43848 295.477 8.43848C293.239 8.43848 291.093 9.32753 289.51 10.91C287.927 12.4926 287.038 14.6389 287.038 16.8769C287.038 19.115 287.927 21.2613 289.51 22.8439C291.093 24.4264 293.239 25.3154 295.477 25.3154ZM295.477 37.9731C293.798 37.9731 292.189 38.6399 291.002 39.8268C289.815 41.0137 289.148 42.6235 289.148 44.302C289.148 45.9805 289.815 47.5903 291.002 48.7772C292.189 49.9641 293.798 50.6308 295.477 50.6308C297.155 50.6308 298.765 49.9641 299.952 48.7772C301.139 47.5903 301.806 45.9805 301.806 44.302C301.806 42.6235 301.139 41.0137 299.952 39.8268C298.765 38.6399 297.155 37.9731 295.477 37.9731ZM280.71 44.302C280.71 40.3854 282.265 36.6293 285.035 33.8599C287.804 31.0905 291.56 29.5347 295.477 29.5347C299.393 29.5347 303.15 31.0905 305.919 33.8599C308.688 36.6293 310.244 40.3854 310.244 44.302C310.244 48.2185 308.688 51.9747 305.919 54.7441C303.15 57.5135 299.393 59.0693 295.477 59.0693C291.56 59.0693 287.804 57.5135 285.035 54.7441C282.265 51.9747 280.71 48.2185 280.71 44.302Z" fill="black" fill-opacity="0.1"/>
</g>
<g clip-path="url(#clip26_3_152)">
<path d="M361.077 4.21924C362.196 4.21924 363.269 4.66376 364.06 5.45502C364.852 6.24628 365.296 7.31946 365.296 8.43847V59.0693C365.296 60.1883 364.852 61.2615 364.06 62.0528C363.269 62.844 362.196 63.2885 361.077 63.2885H327.323C326.204 63.2885 325.131 62.844 324.34 62.0528C323.548 61.2615 323.104 60.1883 323.104 59.0693V8.43847C323.104 7.31946 323.548 6.24628 324.34 5.45502C325.131 4.66376 326.204 4.21924 327.323 4.21924H361.077ZM327.323 0C325.085 0 322.939 0.889051 321.356 2.47157C319.774 4.05409 318.884 6.20045 318.884 8.43847V59.0693C318.884 61.3073 319.774 63.4537 321.356 65.0362C322.939 66.6187 325.085 67.5078 327.323 67.5078H361.077C363.315 67.5078 365.461 66.6187 367.044 65.0362C368.626 63.4537 369.515 61.3073 369.515 59.0693V8.43847C369.515 6.20045 368.626 4.05409 367.044 2.47157C365.461 0.889051 363.315 0 361.077 0L327.323 0Z" fill="black" fill-opacity="0.1"/>
<path d="M344.2 20.0414C343.361 20.0414 342.556 19.708 341.962 19.1145C341.369 18.5211 341.035 17.7162 341.035 16.8769C341.035 16.0377 341.369 15.2328 341.962 14.6394C342.556 14.0459 343.361 13.7125 344.2 13.7125C345.039 13.7125 345.844 14.0459 346.437 14.6394C347.031 15.2328 347.364 16.0377 347.364 16.8769C347.364 17.7162 347.031 18.5211 346.437 19.1145C345.844 19.708 345.039 20.0414 344.2 20.0414ZM344.2 25.3154C346.438 25.3154 348.584 24.4264 350.167 22.8439C351.749 21.2613 352.638 19.115 352.638 16.8769C352.638 14.6389 351.749 12.4926 350.167 10.91C348.584 9.32753 346.438 8.43848 344.2 8.43848C341.962 8.43848 339.816 9.32753 338.233 10.91C336.65 12.4926 335.761 14.6389 335.761 16.8769C335.761 19.115 336.65 21.2613 338.233 22.8439C339.816 24.4264 341.962 25.3154 344.2 25.3154ZM344.2 37.9731C342.521 37.9731 340.912 38.6399 339.725 39.8268C338.538 41.0137 337.871 42.6235 337.871 44.302C337.871 45.9805 338.538 47.5903 339.725 48.7772C340.912 49.9641 342.521 50.6308 344.2 50.6308C345.878 50.6308 347.488 49.9641 348.675 48.7772C349.862 47.5903 350.529 45.9805 350.529 44.302C350.529 42.6235 349.862 41.0137 348.675 39.8268C347.488 38.6399 345.878 37.9731 344.2 37.9731ZM329.433 44.302C329.433 40.3854 330.988 36.6293 333.758 33.8599C336.527 31.0905 340.283 29.5347 344.2 29.5347C348.116 29.5347 351.873 31.0905 354.642 33.8599C357.411 36.6293 358.967 40.3854 358.967 44.302C358.967 48.2185 357.411 51.9747 354.642 54.7441C351.873 57.5135 348.116 59.0693 344.2 59.0693C340.283 59.0693 336.527 57.5135 333.758 54.7441C330.988 51.9747 329.433 48.2185 329.433 44.302Z" fill="black" fill-opacity="0.1"/>
</g>
<g clip-path="url(#clip27_3_152)">
<path d="M409.8 4.21924C410.919 4.21924 411.992 4.66376 412.783 5.45502C413.575 6.24628 414.019 7.31946 414.019 8.43847V59.0693C414.019 60.1883 413.575 61.2615 412.783 62.0528C411.992 62.844 410.919 63.2885 409.8 63.2885H376.046C374.927 63.2885 373.854 62.844 373.063 62.0528C372.271 61.2615 371.827 60.1883 371.827 59.0693V8.43847C371.827 7.31946 372.271 6.24628 373.063 5.45502C373.854 4.66376 374.927 4.21924 376.046 4.21924H409.8ZM376.046 0C373.808 0 371.662 0.889051 370.079 2.47157C368.497 4.05409 367.607 6.20045 367.607 8.43847V59.0693C367.607 61.3073 368.497 63.4537 370.079 65.0362C371.662 66.6187 373.808 67.5078 376.046 67.5078H409.8C412.038 67.5078 414.184 66.6187 415.767 65.0362C417.349 63.4537 418.238 61.3073 418.238 59.0693V8.43847C418.238 6.20045 417.349 4.05409 415.767 2.47157C414.184 0.889051 412.038 0 409.8 0L376.046 0Z" fill="black" fill-opacity="0.1"/>
<path d="M392.923 20.0414C392.084 20.0414 391.279 19.708 390.685 19.1145C390.092 18.5211 389.758 17.7162 389.758 16.8769C389.758 16.0377 390.092 15.2328 390.685 14.6394C391.279 14.0459 392.084 13.7125 392.923 13.7125C393.762 13.7125 394.567 14.0459 395.16 14.6394C395.754 15.2328 396.087 16.0377 396.087 16.8769C396.087 17.7162 395.754 18.5211 395.16 19.1145C394.567 19.708 393.762 20.0414 392.923 20.0414ZM392.923 25.3154C395.161 25.3154 397.307 24.4264 398.89 22.8439C400.472 21.2613 401.361 19.115 401.361 16.8769C401.361 14.6389 400.472 12.4926 398.89 10.91C397.307 9.32753 395.161 8.43848 392.923 8.43848C390.685 8.43848 388.539 9.32753 386.956 10.91C385.373 12.4926 384.484 14.6389 384.484 16.8769C384.484 19.115 385.373 21.2613 386.956 22.8439C388.539 24.4264 390.685 25.3154 392.923 25.3154ZM392.923 37.9731C391.244 37.9731 389.635 38.6399 388.448 39.8268C387.261 41.0137 386.594 42.6235 386.594 44.302C386.594 45.9805 387.261 47.5903 388.448 48.7772C389.635 49.9641 391.244 50.6308 392.923 50.6308C394.601 50.6308 396.211 49.9641 397.398 48.7772C398.585 47.5903 399.252 45.9805 399.252 44.302C399.252 42.6235 398.585 41.0137 397.398 39.8268C396.211 38.6399 394.601 37.9731 392.923 37.9731ZM378.156 44.302C378.156 40.3854 379.711 36.6293 382.481 33.8599C385.25 31.0905 389.006 29.5347 392.923 29.5347C396.839 29.5347 400.596 31.0905 403.365 33.8599C406.134 36.6293 407.69 40.3854 407.69 44.302C407.69 48.2185 406.134 51.9747 403.365 54.7441C400.596 57.5135 396.839 59.0693 392.923 59.0693C389.006 59.0693 385.25 57.5135 382.481 54.7441C379.711 51.9747 378.156 48.2185 378.156 44.302Z" fill="black" fill-opacity="0.1"/>
</g>
<g clip-path="url(#clip28_3_152)">
<path d="M458.523 4.21924C459.642 4.21924 460.715 4.66376 461.506 5.45502C462.298 6.24628 462.742 7.31946 462.742 8.43847V59.0693C462.742 60.1883 462.298 61.2615 461.506 62.0528C460.715 62.844 459.642 63.2885 458.523 63.2885H424.769C423.65 63.2885 422.577 62.844 421.786 62.0528C420.994 61.2615 420.55 60.1883 420.55 59.0693V8.43847C420.55 7.31946 420.994 6.24628 421.786 5.45502C422.577 4.66376 423.65 4.21924 424.769 4.21924H458.523ZM424.769 0C422.531 0 420.385 0.889051 418.802 2.47157C417.22 4.05409 416.331 6.20045 416.331 8.43847V59.0693C416.331 61.3073 417.22 63.4537 418.802 65.0362C420.385 66.6187 422.531 67.5078 424.769 67.5078H458.523C460.761 67.5078 462.907 66.6187 464.49 65.0362C466.072 63.4537 466.961 61.3073 466.961 59.0693V8.43847C466.961 6.20045 466.072 4.05409 464.49 2.47157C462.907 0.889051 460.761 0 458.523 0L424.769 0Z" fill="black" fill-opacity="0.1"/>
<path d="M441.646 20.0414C440.807 20.0414 440.002 19.708 439.408 19.1145C438.815 18.5211 438.481 17.7162 438.481 16.8769C438.481 16.0377 438.815 15.2328 439.408 14.6394C440.002 14.0459 440.807 13.7125 441.646 13.7125C442.485 13.7125 443.29 14.0459 443.884 14.6394C444.477 15.2328 444.81 16.0377 444.81 16.8769C444.81 17.7162 444.477 18.5211 443.884 19.1145C443.29 19.708 442.485 20.0414 441.646 20.0414ZM441.646 25.3154C443.884 25.3154 446.03 24.4264 447.613 22.8439C449.195 21.2613 450.084 19.115 450.084 16.8769C450.084 14.6389 449.195 12.4926 447.613 10.91C446.03 9.32753 443.884 8.43848 441.646 8.43848C439.408 8.43848 437.262 9.32753 435.679 10.91C434.097 12.4926 433.207 14.6389 433.207 16.8769C433.207 19.115 434.097 21.2613 435.679 22.8439C437.262 24.4264 439.408 25.3154 441.646 25.3154ZM441.646 37.9731C439.967 37.9731 438.358 38.6399 437.171 39.8268C435.984 41.0137 435.317 42.6235 435.317 44.302C435.317 45.9805 435.984 47.5903 437.171 48.7772C438.358 49.9641 439.967 50.6308 441.646 50.6308C443.324 50.6308 444.934 49.9641 446.121 48.7772C447.308 47.5903 447.975 45.9805 447.975 44.302C447.975 42.6235 447.308 41.0137 446.121 39.8268C444.934 38.6399 443.324 37.9731 441.646 37.9731ZM426.879 44.302C426.879 40.3854 428.434 36.6293 431.204 33.8599C433.973 31.0905 437.729 29.5347 441.646 29.5347C445.562 29.5347 449.319 31.0905 452.088 33.8599C454.857 36.6293 456.413 40.3854 456.413 44.302C456.413 48.2185 454.857 51.9747 452.088 54.7441C449.319 57.5135 445.562 59.0693 441.646 59.0693C437.729 59.0693 433.973 57.5135 431.204 54.7441C428.434 51.9747 426.879 48.2185 426.879 44.302Z" fill="black" fill-opacity="0.1"/>
</g>
<g clip-path="url(#clip29_3_152)">
<path d="M507.246 4.21924C508.365 4.21924 509.438 4.66376 510.229 5.45502C511.021 6.24628 511.465 7.31946 511.465 8.43847V59.0693C511.465 60.1883 511.021 61.2615 510.229 62.0528C509.438 62.844 508.365 63.2885 507.246 63.2885H473.492C472.373 63.2885 471.3 62.844 470.509 62.0528C469.717 61.2615 469.273 60.1883 469.273 59.0693V8.43847C469.273 7.31946 469.717 6.24628 470.509 5.45502C471.3 4.66376 472.373 4.21924 473.492 4.21924H507.246ZM473.492 0C471.254 0 469.108 0.889051 467.525 2.47157C465.943 4.05409 465.054 6.20045 465.054 8.43847V59.0693C465.054 61.3073 465.943 63.4537 467.525 65.0362C469.108 66.6187 471.254 67.5078 473.492 67.5078H507.246C509.484 67.5078 511.63 66.6187 513.213 65.0362C514.795 63.4537 515.684 61.3073 515.684 59.0693V8.43847C515.684 6.20045 514.795 4.05409 513.213 2.47157C511.63 0.889051 509.484 0 507.246 0L473.492 0Z" fill="black"/>
<path d="M490.369 20.0414C489.53 20.0414 488.725 19.708 488.131 19.1145C487.538 18.5211 487.204 17.7162 487.204 16.8769C487.204 16.0377 487.538 15.2328 488.131 14.6394C488.725 14.0459 489.53 13.7125 490.369 13.7125C491.208 13.7125 492.013 14.0459 492.607 14.6394C493.2 15.2328 493.533 16.0377 493.533 16.8769C493.533 17.7162 493.2 18.5211 492.607 19.1145C492.013 19.708 491.208 20.0414 490.369 20.0414ZM490.369 25.3154C492.607 25.3154 494.753 24.4264 496.336 22.8439C497.918 21.2613 498.807 19.115 498.807 16.8769C498.807 14.6389 497.918 12.4926 496.336 10.91C494.753 9.32753 492.607 8.43848 490.369 8.43848C488.131 8.43848 485.985 9.32753 484.402 10.91C482.819 12.4926 481.93 14.6389 481.93 16.8769C481.93 19.115 482.819 21.2613 484.402 22.8439C485.985 24.4264 488.131 25.3154 490.369 25.3154ZM490.369 37.9731C488.69 37.9731 487.081 38.6399 485.894 39.8268C484.707 41.0137 484.04 42.6235 484.04 44.302C484.04 45.9805 484.707 47.5903 485.894 48.7772C487.081 49.9641 488.69 50.6308 490.369 50.6308C492.047 50.6308 493.657 49.9641 494.844 48.7772C496.031 47.5903 496.698 45.9805 496.698 44.302C496.698 42.6235 496.031 41.0137 494.844 39.8268C493.657 38.6399 492.047 37.9731 490.369 37.9731ZM475.602 44.302C475.602 40.3854 477.157 36.6293 479.927 33.8599C482.696 31.0905 486.452 29.5347 490.369 29.5347C494.285 29.5347 498.042 31.0905 500.811 33.8599C503.58 36.6293 505.136 40.3854 505.136 44.302C505.136 48.2185 503.58 51.9747 500.811 54.7441C498.042 57.5135 494.285 59.0693 490.369 59.0693C486.452 59.0693 482.696 57.5135 479.927 54.7441C477.157 51.9747 475.602 48.2185 475.602 44.302Z" fill="black"/>
</g>
<g clip-path="url(#clip30_3_152)">
<path d="M555.969 4.21924C557.088 4.21924 558.161 4.66376 558.952 5.45502C559.744 6.24628 560.188 7.31946 560.188 8.43847V59.0693C560.188 60.1883 559.744 61.2615 558.952 62.0528C558.161 62.844 557.088 63.2885 555.969 63.2885H522.215C521.096 63.2885 520.023 62.844 519.232 62.0528C518.44 61.2615 517.996 60.1883 517.996 59.0693V8.43847C517.996 7.31946 518.44 6.24628 519.232 5.45502C520.023 4.66376 521.096 4.21924 522.215 4.21924H555.969ZM522.215 0C519.977 0 517.831 0.889051 516.248 2.47157C514.666 4.05409 513.777 6.20045 513.777 8.43847V59.0693C513.777 61.3073 514.666 63.4537 516.248 65.0362C517.831 66.6187 519.977 67.5078 522.215 67.5078H555.969C558.207 67.5078 560.353 66.6187 561.936 65.0362C563.518 63.4537 564.407 61.3073 564.407 59.0693V8.43847C564.407 6.20045 563.518 4.05409 561.936 2.47157C560.353 0.889051 558.207 0 555.969 0L522.215 0Z" fill="black"/>
<path d="M539.092 20.0414C538.253 20.0414 537.448 19.708 536.854 19.1145C536.261 18.5211 535.928 17.7162 535.928 16.8769C535.928 16.0377 536.261 15.2328 536.854 14.6394C537.448 14.0459 538.253 13.7125 539.092 13.7125C539.931 13.7125 540.736 14.0459 541.33 14.6394C541.923 15.2328 542.256 16.0377 542.256 16.8769C542.256 17.7162 541.923 18.5211 541.33 19.1145C540.736 19.708 539.931 20.0414 539.092 20.0414ZM539.092 25.3154C541.33 25.3154 543.476 24.4264 545.059 22.8439C546.641 21.2613 547.53 19.115 547.53 16.8769C547.53 14.6389 546.641 12.4926 545.059 10.91C543.476 9.32753 541.33 8.43848 539.092 8.43848C536.854 8.43848 534.708 9.32753 533.125 10.91C531.543 12.4926 530.653 14.6389 530.653 16.8769C530.653 19.115 531.543 21.2613 533.125 22.8439C534.708 24.4264 536.854 25.3154 539.092 25.3154ZM539.092 37.9731C537.413 37.9731 535.804 38.6399 534.617 39.8268C533.43 41.0137 532.763 42.6235 532.763 44.302C532.763 45.9805 533.43 47.5903 534.617 48.7772C535.804 49.9641 537.413 50.6308 539.092 50.6308C540.77 50.6308 542.38 49.9641 543.567 48.7772C544.754 47.5903 545.421 45.9805 545.421 44.302C545.421 42.6235 544.754 41.0137 543.567 39.8268C542.38 38.6399 540.77 37.9731 539.092 37.9731ZM524.325 44.302C524.325 40.3854 525.88 36.6293 528.65 33.8599C531.419 31.0905 535.175 29.5347 539.092 29.5347C543.008 29.5347 546.765 31.0905 549.534 33.8599C552.303 36.6293 553.859 40.3854 553.859 44.302C553.859 48.2185 552.303 51.9747 549.534 54.7441C546.765 57.5135 543.008 59.0693 539.092 59.0693C535.175 59.0693 531.419 57.5135 528.65 54.7441C525.88 51.9747 524.325 48.2185 524.325 44.302Z" fill="black"/>
</g>
<g clip-path="url(#clip31_3_152)">
<path d="M604.692 4.21924C605.811 4.21924 606.884 4.66376 607.675 5.45502C608.467 6.24628 608.911 7.31946 608.911 8.43847V59.0693C608.911 60.1883 608.467 61.2615 607.675 62.0528C606.884 62.844 605.811 63.2885 604.692 63.2885H570.938C569.819 63.2885 568.746 62.844 567.955 62.0528C567.163 61.2615 566.719 60.1883 566.719 59.0693V8.43847C566.719 7.31946 567.163 6.24628 567.955 5.45502C568.746 4.66376 569.819 4.21924 570.938 4.21924H604.692ZM570.938 0C568.7 0 566.554 0.889051 564.971 2.47157C563.389 4.05409 562.5 6.20045 562.5 8.43847V59.0693C562.5 61.3073 563.389 63.4537 564.971 65.0362C566.554 66.6187 568.7 67.5078 570.938 67.5078H604.692C606.93 67.5078 609.076 66.6187 610.659 65.0362C612.241 63.4537 613.13 61.3073 613.13 59.0693V8.43847C613.13 6.20045 612.241 4.05409 610.659 2.47157C609.076 0.889051 606.93 0 604.692 0L570.938 0Z" fill="black" fill-opacity="0.1"/>
<path d="M587.815 20.0414C586.976 20.0414 586.171 19.708 585.577 19.1145C584.984 18.5211 584.651 17.7162 584.651 16.8769C584.651 16.0377 584.984 15.2328 585.577 14.6394C586.171 14.0459 586.976 13.7125 587.815 13.7125C588.654 13.7125 589.459 14.0459 590.053 14.6394C590.646 15.2328 590.979 16.0377 590.979 16.8769C590.979 17.7162 590.646 18.5211 590.053 19.1145C589.459 19.708 588.654 20.0414 587.815 20.0414ZM587.815 25.3154C590.053 25.3154 592.199 24.4264 593.782 22.8439C595.364 21.2613 596.253 19.115 596.253 16.8769C596.253 14.6389 595.364 12.4926 593.782 10.91C592.199 9.32753 590.053 8.43848 587.815 8.43848C585.577 8.43848 583.431 9.32753 581.848 10.91C580.266 12.4926 579.376 14.6389 579.376 16.8769C579.376 19.115 580.266 21.2613 581.848 22.8439C583.431 24.4264 585.577 25.3154 587.815 25.3154ZM587.815 37.9731C586.136 37.9731 584.527 38.6399 583.34 39.8268C582.153 41.0137 581.486 42.6235 581.486 44.302C581.486 45.9805 582.153 47.5903 583.34 48.7772C584.527 49.9641 586.136 50.6308 587.815 50.6308C589.493 50.6308 591.103 49.9641 592.29 48.7772C593.477 47.5903 594.144 45.9805 594.144 44.302C594.144 42.6235 593.477 41.0137 592.29 39.8268C591.103 38.6399 589.493 37.9731 587.815 37.9731ZM573.048 44.302C573.048 40.3854 574.603 36.6293 577.373 33.8599C580.142 31.0905 583.898 29.5347 587.815 29.5347C591.732 29.5347 595.488 31.0905 598.257 33.8599C601.026 36.6293 602.582 40.3854 602.582 44.302C602.582 48.2185 601.026 51.9747 598.257 54.7441C595.488 57.5135 591.732 59.0693 587.815 59.0693C583.898 59.0693 580.142 57.5135 577.373 54.7441C574.603 51.9747 573.048 48.2185 573.048 44.302Z" fill="black" fill-opacity="0.1"/>
</g>
<g clip-path="url(#clip32_3_152)">
<path d="M653.415 4.21924C654.534 4.21924 655.607 4.66376 656.398 5.45502C657.19 6.24628 657.634 7.31946 657.634 8.43847V59.0693C657.634 60.1883 657.19 61.2615 656.398 62.0528C655.607 62.844 654.534 63.2885 653.415 63.2885H619.661C618.542 63.2885 617.469 62.844 616.678 62.0528C615.886 61.2615 615.442 60.1883 615.442 59.0693V8.43847C615.442 7.31946 615.886 6.24628 616.678 5.45502C617.469 4.66376 618.542 4.21924 619.661 4.21924H653.415ZM619.661 0C617.423 0 615.277 0.889051 613.694 2.47157C612.112 4.05409 611.223 6.20045 611.223 8.43847V59.0693C611.223 61.3073 612.112 63.4537 613.694 65.0362C615.277 66.6187 617.423 67.5078 619.661 67.5078H653.415C655.653 67.5078 657.799 66.6187 659.382 65.0362C660.964 63.4537 661.853 61.3073 661.853 59.0693V8.43847C661.853 6.20045 660.964 4.05409 659.382 2.47157C657.799 0.889051 655.653 0 653.415 0L619.661 0Z" fill="black" fill-opacity="0.1"/>
<path d="M636.538 20.0414C635.699 20.0414 634.894 19.708 634.3 19.1145C633.707 18.5211 633.374 17.7162 633.374 16.8769C633.374 16.0377 633.707 15.2328 634.3 14.6394C634.894 14.0459 635.699 13.7125 636.538 13.7125C637.377 13.7125 638.182 14.0459 638.776 14.6394C639.369 15.2328 639.702 16.0377 639.702 16.8769C639.702 17.7162 639.369 18.5211 638.776 19.1145C638.182 19.708 637.377 20.0414 636.538 20.0414ZM636.538 25.3154C638.776 25.3154 640.922 24.4264 642.505 22.8439C644.087 21.2613 644.976 19.115 644.976 16.8769C644.976 14.6389 644.087 12.4926 642.505 10.91C640.922 9.32753 638.776 8.43848 636.538 8.43848C634.3 8.43848 632.154 9.32753 630.571 10.91C628.989 12.4926 628.099 14.6389 628.099 16.8769C628.099 19.115 628.989 21.2613 630.571 22.8439C632.154 24.4264 634.3 25.3154 636.538 25.3154ZM636.538 37.9731C634.859 37.9731 633.25 38.6399 632.063 39.8268C630.876 41.0137 630.209 42.6235 630.209 44.302C630.209 45.9805 630.876 47.5903 632.063 48.7772C633.25 49.9641 634.859 50.6308 636.538 50.6308C638.216 50.6308 639.826 49.9641 641.013 48.7772C642.2 47.5903 642.867 45.9805 642.867 44.302C642.867 42.6235 642.2 41.0137 641.013 39.8268C639.826 38.6399 638.216 37.9731 636.538 37.9731ZM621.771 44.302C621.771 40.3854 623.326 36.6293 626.096 33.8599C628.865 31.0905 632.621 29.5347 636.538 29.5347C640.454 29.5347 644.211 31.0905 646.98 33.8599C649.749 36.6293 651.305 40.3854 651.305 44.302C651.305 48.2185 649.749 51.9747 646.98 54.7441C644.211 57.5135 640.454 59.0693 636.538 59.0693C632.621 59.0693 628.865 57.5135 626.096 54.7441C623.326 51.9747 621.771 48.2185 621.771 44.302Z" fill="black" fill-opacity="0.1"/>
</g>
<g clip-path="url(#clip33_3_152)">
<path d="M702.138 4.21924C703.257 4.21924 704.33 4.66376 705.121 5.45502C705.913 6.24628 706.357 7.31946 706.357 8.43847V59.0693C706.357 60.1883 705.913 61.2615 705.121 62.0528C704.33 62.844 703.257 63.2885 702.138 63.2885H668.384C667.265 63.2885 666.192 62.844 665.401 62.0528C664.609 61.2615 664.165 60.1883 664.165 59.0693V8.43847C664.165 7.31946 664.609 6.24628 665.401 5.45502C666.192 4.66376 667.265 4.21924 668.384 4.21924H702.138ZM668.384 0C666.146 0 664 0.889051 662.417 2.47157C660.835 4.05409 659.946 6.20045 659.946 8.43847V59.0693C659.946 61.3073 660.835 63.4537 662.417 65.0362C664 66.6187 666.146 67.5078 668.384 67.5078H702.138C704.376 67.5078 706.522 66.6187 708.105 65.0362C709.687 63.4537 710.576 61.3073 710.576 59.0693V8.43847C710.576 6.20045 709.687 4.05409 708.105 2.47157C706.522 0.889051 704.376 0 702.138 0L668.384 0Z" fill="black" fill-opacity="0.1"/>
<path d="M685.261 20.0414C684.422 20.0414 683.617 19.708 683.023 19.1145C682.43 18.5211 682.097 17.7162 682.097 16.8769C682.097 16.0377 682.43 15.2328 683.023 14.6394C683.617 14.0459 684.422 13.7125 685.261 13.7125C686.1 13.7125 686.905 14.0459 687.499 14.6394C688.092 15.2328 688.425 16.0377 688.425 16.8769C688.425 17.7162 688.092 18.5211 687.499 19.1145C686.905 19.708 686.1 20.0414 685.261 20.0414ZM685.261 25.3154C687.499 25.3154 689.645 24.4264 691.228 22.8439C692.81 21.2613 693.699 19.115 693.699 16.8769C693.699 14.6389 692.81 12.4926 691.228 10.91C689.645 9.32753 687.499 8.43848 685.261 8.43848C683.023 8.43848 680.877 9.32753 679.294 10.91C677.712 12.4926 676.822 14.6389 676.822 16.8769C676.822 19.115 677.712 21.2613 679.294 22.8439C680.877 24.4264 683.023 25.3154 685.261 25.3154ZM685.261 37.9731C683.582 37.9731 681.973 38.6399 680.786 39.8268C679.599 41.0137 678.932 42.6235 678.932 44.302C678.932 45.9805 679.599 47.5903 680.786 48.7772C681.973 49.9641 683.582 50.6308 685.261 50.6308C686.939 50.6308 688.549 49.9641 689.736 48.7772C690.923 47.5903 691.59 45.9805 691.59 44.302C691.59 42.6235 690.923 41.0137 689.736 39.8268C688.549 38.6399 686.939 37.9731 685.261 37.9731ZM670.494 44.302C670.494 40.3854 672.049 36.6293 674.819 33.8599C677.588 31.0905 681.344 29.5347 685.261 29.5347C689.177 29.5347 692.934 31.0905 695.703 33.8599C698.472 36.6293 700.028 40.3854 700.028 44.302C700.028 48.2185 698.472 51.9747 695.703 54.7441C692.934 57.5135 689.177 59.0693 685.261 59.0693C681.344 59.0693 677.588 57.5135 674.819 54.7441C672.049 51.9747 670.494 48.2185 670.494 44.302Z" fill="black" fill-opacity="0.1"/>
</g>
<g clip-path="url(#clip34_3_152)">
<path d="M750.861 4.21924C751.98 4.21924 753.053 4.66376 753.844 5.45502C754.636 6.24628 755.08 7.31946 755.08 8.43847V59.0693C755.08 60.1883 754.636 61.2615 753.844 62.0528C753.053 62.844 751.98 63.2885 750.861 63.2885H717.107C715.988 63.2885 714.915 62.844 714.124 62.0528C713.332 61.2615 712.888 60.1883 712.888 59.0693V8.43847C712.888 7.31946 713.332 6.24628 714.124 5.45502C714.915 4.66376 715.988 4.21924 717.107 4.21924H750.861ZM717.107 0C714.869 0 712.723 0.889051 711.14 2.47157C709.558 4.05409 708.669 6.20045 708.669 8.43847V59.0693C708.669 61.3073 709.558 63.4537 711.14 65.0362C712.723 66.6187 714.869 67.5078 717.107 67.5078H750.861C753.099 67.5078 755.245 66.6187 756.828 65.0362C758.41 63.4537 759.299 61.3073 759.299 59.0693V8.43847C759.299 6.20045 758.41 4.05409 756.828 2.47157C755.245 0.889051 753.099 0 750.861 0L717.107 0Z" fill="black" fill-opacity="0.1"/>
<path d="M733.984 20.0414C733.145 20.0414 732.34 19.708 731.746 19.1145C731.153 18.5211 730.82 17.7162 730.82 16.8769C730.82 16.0377 731.153 15.2328 731.746 14.6394C732.34 14.0459 733.145 13.7125 733.984 13.7125C734.823 13.7125 735.628 14.0459 736.222 14.6394C736.815 15.2328 737.148 16.0377 737.148 16.8769C737.148 17.7162 736.815 18.5211 736.222 19.1145C735.628 19.708 734.823 20.0414 733.984 20.0414ZM733.984 25.3154C736.222 25.3154 738.368 24.4264 739.951 22.8439C741.533 21.2613 742.422 19.115 742.422 16.8769C742.422 14.6389 741.533 12.4926 739.951 10.91C738.368 9.32753 736.222 8.43848 733.984 8.43848C731.746 8.43848 729.6 9.32753 728.017 10.91C726.435 12.4926 725.545 14.6389 725.545 16.8769C725.545 19.115 726.435 21.2613 728.017 22.8439C729.6 24.4264 731.746 25.3154 733.984 25.3154ZM733.984 37.9731C732.305 37.9731 730.696 38.6399 729.509 39.8268C728.322 41.0137 727.655 42.6235 727.655 44.302C727.655 45.9805 728.322 47.5903 729.509 48.7772C730.696 49.9641 732.305 50.6308 733.984 50.6308C735.662 50.6308 737.272 49.9641 738.459 48.7772C739.646 47.5903 740.313 45.9805 740.313 44.302C740.313 42.6235 739.646 41.0137 738.459 39.8268C737.272 38.6399 735.662 37.9731 733.984 37.9731ZM719.217 44.302C719.217 40.3854 720.772 36.6293 723.542 33.8599C726.311 31.0905 730.067 29.5347 733.984 29.5347C737.901 29.5347 741.657 31.0905 744.426 33.8599C747.195 36.6293 748.751 40.3854 748.751 44.302C748.751 48.2185 747.195 51.9747 744.426 54.7441C741.657 57.5135 737.901 59.0693 733.984 59.0693C730.067 59.0693 726.311 57.5135 723.542 54.7441C720.772 51.9747 719.217 48.2185 719.217 44.302Z" fill="black" fill-opacity="0.1"/>
</g>
<g clip-path="url(#clip35_3_152)">
<path d="M799.584 4.21924C800.703 4.21924 801.776 4.66376 802.567 5.45502C803.359 6.24628 803.803 7.31946 803.803 8.43847V59.0693C803.803 60.1883 803.359 61.2615 802.567 62.0528C801.776 62.844 800.703 63.2885 799.584 63.2885H765.83C764.711 63.2885 763.638 62.844 762.847 62.0528C762.055 61.2615 761.611 60.1883 761.611 59.0693V8.43847C761.611 7.31946 762.055 6.24628 762.847 5.45502C763.638 4.66376 764.711 4.21924 765.83 4.21924H799.584ZM765.83 0C763.592 0 761.446 0.889051 759.863 2.47157C758.281 4.05409 757.392 6.20045 757.392 8.43847V59.0693C757.392 61.3073 758.281 63.4537 759.863 65.0362C761.446 66.6187 763.592 67.5078 765.83 67.5078H799.584C801.822 67.5078 803.968 66.6187 805.551 65.0362C807.133 63.4537 808.022 61.3073 808.022 59.0693V8.43847C808.022 6.20045 807.133 4.05409 805.551 2.47157C803.968 0.889051 801.822 0 799.584 0L765.83 0Z" fill="black" fill-opacity="0.1"/>
<path d="M782.707 20.0414C781.868 20.0414 781.063 19.708 780.469 19.1145C779.876 18.5211 779.543 17.7162 779.543 16.8769C779.543 16.0377 779.876 15.2328 780.469 14.6394C781.063 14.0459 781.868 13.7125 782.707 13.7125C783.546 13.7125 784.351 14.0459 784.945 14.6394C785.538 15.2328 785.871 16.0377 785.871 16.8769C785.871 17.7162 785.538 18.5211 784.945 19.1145C784.351 19.708 783.546 20.0414 782.707 20.0414ZM782.707 25.3154C784.945 25.3154 787.091 24.4264 788.674 22.8439C790.256 21.2613 791.145 19.115 791.145 16.8769C791.145 14.6389 790.256 12.4926 788.674 10.91C787.091 9.32753 784.945 8.43848 782.707 8.43848C780.469 8.43848 778.323 9.32753 776.74 10.91C775.158 12.4926 774.268 14.6389 774.268 16.8769C774.268 19.115 775.158 21.2613 776.74 22.8439C778.323 24.4264 780.469 25.3154 782.707 25.3154ZM782.707 37.9731C781.028 37.9731 779.419 38.6399 778.232 39.8268C777.045 41.0137 776.378 42.6235 776.378 44.302C776.378 45.9805 777.045 47.5903 778.232 48.7772C779.419 49.9641 781.028 50.6308 782.707 50.6308C784.385 50.6308 785.995 49.9641 787.182 48.7772C788.369 47.5903 789.036 45.9805 789.036 44.302C789.036 42.6235 788.369 41.0137 787.182 39.8268C785.995 38.6399 784.385 37.9731 782.707 37.9731ZM767.94 44.302C767.94 40.3854 769.495 36.6293 772.265 33.8599C775.034 31.0905 778.79 29.5347 782.707 29.5347C786.624 29.5347 790.38 31.0905 793.149 33.8599C795.918 36.6293 797.474 40.3854 797.474 44.302C797.474 48.2185 795.918 51.9747 793.149 54.7441C790.38 57.5135 786.624 59.0693 782.707 59.0693C778.79 59.0693 775.034 57.5135 772.265 54.7441C769.495 51.9747 767.94 48.2185 767.94 44.302Z" fill="black" fill-opacity="0.1"/>
</g>
<defs>
<clipPath id="clip0_3_152">
<rect width="115" height="115" fill="white" transform="translate(0 157)"/>
</clipPath>
<clipPath id="clip1_3_152">
<rect width="115" height="115" fill="white" transform="translate(83 157)"/>
</clipPath>
<clipPath id="clip2_3_152">
<rect width="115" height="115" fill="white" transform="translate(166 157)"/>
</clipPath>
<clipPath id="clip3_3_152">
<rect width="115" height="115" fill="white" transform="translate(249 157)"/>
</clipPath>
<clipPath id="clip4_3_152">
<rect width="115" height="115" fill="white" transform="translate(332 157)"/>
</clipPath>
<clipPath id="clip5_3_152">
<rect width="115" height="115" fill="white" transform="translate(415 157)"/>
</clipPath>
<clipPath id="clip6_3_152">
<rect width="115" height="115" fill="white" transform="translate(498 157)"/>
</clipPath>
<clipPath id="clip7_3_152">
<rect width="115" height="115" fill="white" transform="translate(581 157)"/>
</clipPath>
<clipPath id="clip8_3_152">
<rect width="115" height="115" fill="white" transform="translate(664 157)"/>
</clipPath>
<clipPath id="clip9_3_152">
<rect width="115" height="115" fill="white" transform="translate(747 157)"/>
</clipPath>
<clipPath id="clip10_3_152">
<rect width="115" height="115" fill="white" transform="translate(830 157)"/>
</clipPath>
<clipPath id="clip11_3_152">
<rect width="115" height="115" fill="white" transform="translate(913 157)"/>
</clipPath>
<clipPath id="clip12_3_152">
<rect width="91.5078" height="91.5078" fill="white" transform="translate(105 65)"/>
</clipPath>
<clipPath id="clip13_3_152">
<rect width="91.5078" height="91.5078" fill="white" transform="translate(171.045 65)"/>
</clipPath>
<clipPath id="clip14_3_152">
<rect width="91.5078" height="91.5078" fill="white" transform="translate(237.089 65)"/>
</clipPath>
<clipPath id="clip15_3_152">
<rect width="91.5078" height="91.5078" fill="white" transform="translate(303.134 65)"/>
</clipPath>
<clipPath id="clip16_3_152">
<rect width="91.5078" height="91.5078" fill="white" transform="translate(369.179 65)"/>
</clipPath>
<clipPath id="clip17_3_152">
<rect width="91.5078" height="91.5078" fill="white" transform="translate(435.224 65)"/>
</clipPath>
<clipPath id="clip18_3_152">
<rect width="91.5078" height="91.5078" fill="white" transform="translate(501.268 65)"/>
</clipPath>
<clipPath id="clip19_3_152">
<rect width="91.5078" height="91.5078" fill="white" transform="translate(567.313 65)"/>
</clipPath>
<clipPath id="clip20_3_152">
<rect width="91.5078" height="91.5078" fill="white" transform="translate(633.358 65)"/>
</clipPath>
<clipPath id="clip21_3_152">
<rect width="91.5078" height="91.5078" fill="white" transform="translate(699.403 65)"/>
</clipPath>
<clipPath id="clip22_3_152">
<rect width="91.5078" height="91.5078" fill="white" transform="translate(765.447 65)"/>
</clipPath>
<clipPath id="clip23_3_152">
<rect width="91.5078" height="91.5078" fill="white" transform="translate(831.492 65)"/>
</clipPath>
<clipPath id="clip24_3_152">
<rect width="67.5078" height="67.5078" fill="white" transform="translate(213)"/>
</clipPath>
<clipPath id="clip25_3_152">
<rect width="67.5078" height="67.5078" fill="white" transform="translate(261.723)"/>
</clipPath>
<clipPath id="clip26_3_152">
<rect width="67.5078" height="67.5078" fill="white" transform="translate(310.446)"/>
</clipPath>
<clipPath id="clip27_3_152">
<rect width="67.5078" height="67.5078" fill="white" transform="translate(359.169)"/>
</clipPath>
<clipPath id="clip28_3_152">
<rect width="67.5078" height="67.5078" fill="white" transform="translate(407.892)"/>
</clipPath>
<clipPath id="clip29_3_152">
<rect width="67.5078" height="67.5078" fill="white" transform="translate(456.615)"/>
</clipPath>
<clipPath id="clip30_3_152">
<rect width="67.5078" height="67.5078" fill="white" transform="translate(505.338)"/>
</clipPath>
<clipPath id="clip31_3_152">
<rect width="67.5078" height="67.5078" fill="white" transform="translate(554.061)"/>
</clipPath>
<clipPath id="clip32_3_152">
<rect width="67.5078" height="67.5078" fill="white" transform="translate(602.784)"/>
</clipPath>
<clipPath id="clip33_3_152">
<rect width="67.5078" height="67.5078" fill="white" transform="translate(651.507)"/>
</clipPath>
<clipPath id="clip34_3_152">
<rect width="67.5078" height="67.5078" fill="white" transform="translate(700.23)"/>
</clipPath>
<clipPath id="clip35_3_152">
<rect width="67.5078" height="67.5078" fill="white" transform="translate(748.953)"/>
</clipPath>
</defs>
</svg>
